<?xml version="1.0" standalone="no"?>
<!DOCTYPE svg PUBLIC "-//W3C//DTD SVG 1.1//EN" "http://www.w3.org/Graphics/SVG/1.1/DTD/svg11.dtd" >
<svg>
<metadata>
Created by FontForge 20110222 at Wed Apr 22 07:51:25 2015
 By www-data
Copyright 2006 House Industries/Brand Design Co., Inc. All Rights Reserved.
</metadata>
<defs>
<font id="UnitedSansReg-Heavy" horiz-adv-x="617" >
  <font-face 
    font-family="United Sans Rg Hv"
    font-weight="700"
    font-stretch="normal"
    units-per-em="1000"
    panose-1="0 0 0 0 0 0 0 0 0 0"
    ascent="760"
    descent="-240"
    x-height="504"
    cap-height="690"
    bbox="-55 -175 1162 894"
    underline-thickness="50"
    underline-position="-50"
    unicode-range="U+0020-FB02"
  />
<missing-glyph horiz-adv-x="752" 
d="M30 776h692v-862h-692v862zM264 334v-141h154v74l20 20h122l81 80v227l-97 96h-345l-93 -93v-114h154v65l29 29h165l33 -32v-116l-20 -20h-127zM264 133v-133h154v133h-154z" />
    <glyph glyph-name=".notdef" horiz-adv-x="752" 
d="M30 776h692v-862h-692v862zM264 334v-141h154v74l20 20h122l81 80v227l-97 96h-345l-93 -93v-114h154v65l29 29h165l33 -32v-116l-20 -20h-127zM264 133v-133h154v133h-154z" />
    <glyph glyph-name="eth" unicode="&#xf0;" horiz-adv-x="587" 
d="M141 0l-92 93v319l92 92h187l63 -63v92l-128 128v29h141l113 -112l62 61h24v-103l-64 -64v-379l-93 -93h-305zM227 94h133l31 32v218l-62 61h-102l-31 -30v-249z" />
    <glyph glyph-name="Lslash" unicode="&#x141;" horiz-adv-x="521" 
d="M23 247v125l57 22v296h154v-236l113 44v-125l-113 -44v-206h263v-123h-417v269z" />
    <glyph glyph-name="lslash" unicode="&#x142;" horiz-adv-x="287" 
d="M7 263v124l63 24v279h147v-222l64 25v-124l-64 -25v-344h-147v287z" />
    <glyph glyph-name="Scaron" unicode="&#x160;" horiz-adv-x="629" 
d="M248 744l-78 78v50h74l66 -66h7l66 66h73v-50l-77 -78h-131zM139 0l-94 93v112h154v-63l29 -29h172l29 30v121l-22 23h-276l-83 82v225l97 96h343l93 -93v-111h-154v62l-29 29h-166l-30 -29v-117l22 -22h277l82 -83v-230l-96 -96h-348z" />
    <glyph glyph-name="scaron" unicode="&#x161;" horiz-adv-x="551" 
d="M212 548l-78 78v50h74l66 -66h7l66 66h73v-50l-77 -78h-131zM118 0l-79 79v67h142v-37l16 -16h150l18 18v79l-13 13h-241l-68 68v148l85 86h300l78 -79v-66h-142v36l-16 16h-140l-18 -18v-79l13 -12h241l68 -68v-150l-85 -85h-309z" />
    <glyph glyph-name="Yacute" unicode="&#xdd;" horiz-adv-x="600" 
d="M223 0v211l-216 479h167l132 -328l137 328h150l-217 -479v-211h-153zM238 741v54l82 82h86v-54l-82 -82h-86z" />
    <glyph glyph-name="yacute" unicode="&#xfd;" horiz-adv-x="527" 
d="M163 0l-158 504h155l110 -401l107 401h145l-191 -607l-71 -72h-219v105h168l10 11l18 59h-74zM201 545v54l82 82h86v-54l-82 -82h-86z" />
    <glyph glyph-name="Thorn" unicode="&#xde;" horiz-adv-x="638" 
d="M64 0v690h154v-112h289l101 -101v-242l-101 -101h-289v-134h-154zM218 244h205l31 31v162l-31 31h-205v-224z" />
    <glyph glyph-name="thorn" unicode="&#xfe;" horiz-adv-x="596" 
d="M57 -175v865h147v-249l64 63h187l92 -92v-319l-92 -93h-198l-53 53v-228h-147zM259 99h109l32 31v247l-32 31h-105l-59 -59v-196z" />
    <glyph glyph-name="Zcaron" unicode="&#x17d;" horiz-adv-x="546" 
d="M207 744l-78 78v50h74l66 -66h7l66 66h73v-50l-77 -78h-131zM31 0v97l295 469h-288v124h472v-97l-295 -468h300v-125h-484z" />
    <glyph glyph-name="zcaron" unicode="&#x17e;" horiz-adv-x="478" 
d="M173 548l-78 78v50h74l66 -66h7l66 66h73v-50l-77 -78h-131zM26 0v83l243 315h-237v106h414v-82l-242 -315h248v-107h-426z" />
    <glyph glyph-name="onehalf" unicode="&#xbd;" horiz-adv-x="886" 
d="M26 322v83h92v202h-90v83h197v-285h90v-83h-289zM182 0l402 690h104l-403 -690h-103zM522 0v158l52 52h163l10 11v56l-13 14h-90l-14 -14v-28h-107v61l58 58h215l58 -58v-122l-52 -53h-162l-11 -11v-44h225v-80h-332z" />
    <glyph glyph-name="onequarter" unicode="&#xbc;" horiz-adv-x="889" 
d="M26 322v83h92v202h-90v83h197v-285h90v-83h-289zM182 0l402 690h104l-403 -690h-103zM726 0v84h-226v61l77 223h101l-63 -204h111v204h106v-204h37v-80h-37v-84h-106z" />
    <glyph glyph-name="onesuperior" unicode="&#xb9;" horiz-adv-x="331" 
d="M26 322v83h92v202h-90v83h197v-285h90v-83h-289z" />
    <glyph glyph-name="threequarters" unicode="&#xbe;" horiz-adv-x="919" 
d="M84 322l-58 58v56h107v-25l14 -14h98l15 15v48l-12 12h-145v72h144l12 12v45l-14 15h-97l-14 -14v-25h-107v55l58 58h222l59 -58v-81l-42 -42l42 -43v-86l-58 -58h-224zM212 0l402 690h104l-403 -690h-103zM756 0v84h-226v61l77 223h101l-63 -204h111v204h106v-204h37
v-80h-37v-84h-106z" />
    <glyph glyph-name="threesuperior" unicode="&#xb3;" horiz-adv-x="398" 
d="M84 322l-58 58v56h107v-25l14 -14h98l15 15v48l-12 12h-145v72h144l12 12v45l-14 15h-97l-14 -14v-25h-107v55l58 58h222l59 -58v-81l-42 -42l42 -43v-86l-58 -58h-224z" />
    <glyph glyph-name="twosuperior" unicode="&#xb2;" horiz-adv-x="397" 
d="M33 322v158l52 52h163l10 11v56l-13 14h-90l-14 -14v-28h-107v61l58 58h215l58 -58v-122l-52 -53h-162l-11 -11v-44h225v-80h-332z" />
    <glyph glyph-name="minus" unicode="&#x2212;" horiz-adv-x="350" 
d="M13 284v121h323v-121h-323z" />
    <glyph glyph-name="multiply" unicode="&#xd7;" horiz-adv-x="423" 
d="M100 152l-80 80l111 111l-111 112l81 80l110 -112l112 112l80 -80l-112 -112l112 -111l-80 -80l-112 111z" />
    <glyph glyph-name="space" unicode=" " horiz-adv-x="245" 
 />
    <glyph glyph-name="exclam" unicode="!" horiz-adv-x="298" 
d="M72 194v496h154v-496h-154zM72 0v133h154v-133h-154z" />
    <glyph glyph-name="quotedbl" unicode="&#x22;" horiz-adv-x="362" 
d="M213 408v282h112v-282h-112zM38 408v282h111v-282h-111z" />
    <glyph glyph-name="numbersign" unicode="#" horiz-adv-x="558" 
d="M106 153v108h-81v97h81v129h-81v97h81v106h114v-106h117v106h115v-106h81v-97h-81v-129h81v-97h-81v-108h-115v108h-117v-108h-114zM220 358h117v129h-117v-129z" />
    <glyph glyph-name="dollar" unicode="$" horiz-adv-x="629" 
d="M139 19l-94 93v100h154v-53l27 -27h174l29 30v102l-22 23h-276l-83 82v206l97 96h99v101h142v-101h102l93 -93v-100h-154v53l-27 27h-168l-30 -29v-98l22 -22h277l82 -83v-211l-96 -96h-101v-101h-142v101h-105z" />
    <glyph glyph-name="percent" unicode="%" horiz-adv-x="809" 
d="M92 351l-68 69v202l68 68h190l68 -68v-202l-68 -69h-190zM148 429h77l21 20v145l-21 21h-77l-21 -21v-145zM527 0l-68 68v202l68 69h189l69 -69v-202l-68 -68h-190zM584 76h76l21 21v145l-21 20h-76l-21 -20v-145zM151 0l402 690h103l-402 -690h-103z" />
    <glyph glyph-name="ampersand" unicode="&#x26;" horiz-adv-x="658" 
d="M142 0l-92 92v183l77 78l-76 76v169l92 92h350l93 -93v-95h-154v49l-29 29h-168l-30 -30v-111l34 -34h410v-109h-65v-204l-92 -92h-350zM234 110h166l30 31v154h-192l-34 -35v-120z" />
    <glyph glyph-name="quotesingle" unicode="'" horiz-adv-x="186" 
d="M38 408v282h111v-282h-111z" />
    <glyph glyph-name="parenleft" unicode="(" horiz-adv-x="354" 
d="M166 -68l-103 102v621l103 102h156v-115h-67l-40 -40v-515l40 -40h67v-115h-156z" />
    <glyph glyph-name="parenright" unicode=")" horiz-adv-x="354" 
d="M291 34l-103 -102h-156v115h67l40 40v515l-40 40h-67v115h156l103 -102v-621z" />
    <glyph glyph-name="asterisk" unicode="*" horiz-adv-x="355" 
d="M127 366l-88 65l85 79l-113 18l35 103l97 -57l-23 116h114l-23 -116l98 57l35 -103l-114 -18l85 -79l-89 -65l-49 105z" />
    <glyph glyph-name="plus" unicode="+" horiz-adv-x="407" 
d="M13 288v113h132v137h117v-137h132v-113h-132v-137h-117v137h-132z" />
    <glyph glyph-name="comma" unicode="," horiz-adv-x="222" 
d="M39 -117v60h55l7 7v50h-62v154h145v-218l-53 -53h-92z" />
    <glyph glyph-name="hyphen" unicode="-" horiz-adv-x="303" 
d="M13 286v121h276v-121h-276z" />
    <glyph glyph-name="period" unicode="." horiz-adv-x="222" 
d="M39 0v154h145v-154h-145z" />
    <glyph glyph-name="slash" unicode="/" horiz-adv-x="365" 
d="M-8 -69l244 827h137l-244 -827h-137z" />
    <glyph glyph-name="zero" unicode="0" horiz-adv-x="661" 
d="M157 0l-102 102v486l102 102h347l102 -102v-486l-102 -102h-347zM249 115h163l40 40v380l-40 40h-163l-40 -40v-380z" />
    <glyph glyph-name="one" unicode="1" horiz-adv-x="492" 
d="M48 0v115h132v461h-132v114h286v-575h130v-115h-416z" />
    <glyph glyph-name="two" unicode="2" horiz-adv-x="611" 
d="M49 0v304l82 83h265l22 22v142l-25 24h-165l-24 -23v-67h-154v112l93 93h332l97 -96v-246l-83 -82h-264l-22 -22v-124h368v-120h-522z" />
    <glyph glyph-name="three" unicode="3" horiz-adv-x="641" 
d="M134 0l-94 93v120h154v-73l30 -30h184l30 30v121l-35 35h-248v114h248l33 33v106l-30 30h-182l-30 -31v-69h-154v118l94 93h364l92 -92v-168l-76 -76l78 -78v-184l-92 -92h-366z" />
    <glyph glyph-name="four" unicode="4" horiz-adv-x="628" 
d="M388 0v177h-370v94l131 419h142l-108 -391h205v391h153v-391h66v-122h-66v-177h-153z" />
    <glyph glyph-name="five" unicode="5" horiz-adv-x="622" 
d="M144 0l-93 93v114h154v-67l27 -27h165l29 30v177l-22 22h-164l-43 -43h-146v391h518v-118h-364v-164l49 48h238l88 -87v-273l-96 -96h-340z" />
    <glyph glyph-name="six" unicode="6" horiz-adv-x="657" 
d="M153 0l-98 98v494l98 98h362l93 -93v-104h-153v54l-30 30h-178l-38 -38v-159l49 50h259l92 -92v-240l-98 -98h-358zM243 113h178l34 34v142l-28 28h-186l-32 -33v-137z" />
    <glyph glyph-name="seven" unicode="7" horiz-adv-x="537" 
d="M168 0v254l173 311h-327v125h508v-97l-200 -353v-240h-154z" />
    <glyph glyph-name="eight" unicode="8" horiz-adv-x="661" 
d="M142 0l-92 92v185l77 77l-76 77v167l92 92h375l92 -92v-167l-76 -77l78 -77v-185l-93 -92h-377zM235 109h191l32 31v124l-36 36h-183l-35 -36v-124zM240 408h182l34 34v108l-31 32h-189l-31 -32v-108z" />
    <glyph glyph-name="nine" unicode="9" horiz-adv-x="656" 
d="M143 0l-94 93v110h153v-60l30 -30h178l38 38v167l-50 -50h-257l-92 92v232l98 98h357l98 -98v-494l-98 -98h-361zM230 381h185l33 33v129l-34 34h-177l-35 -34v-134z" />
    <glyph glyph-name="colon" unicode=":" horiz-adv-x="240" 
d="M47 0v154h146v-154h-146zM47 289v153h146v-153h-146z" />
    <glyph glyph-name="semicolon" unicode=";" horiz-adv-x="238" 
d="M48 -117v60h55l7 7v50h-62v154h145v-218l-53 -53h-92zM48 288v154h145v-154h-145z" />
    <glyph glyph-name="less" unicode="&#x3c;" horiz-adv-x="437" 
d="M397 116l-379 159v140l379 159v-128l-261 -101l261 -101v-128z" />
    <glyph glyph-name="equal" unicode="=" horiz-adv-x="384" 
d="M27 380v113h329v-113h-329zM27 191v113h329v-113h-329z" />
    <glyph glyph-name="greater" unicode="&#x3e;" horiz-adv-x="437" 
d="M419 275l-379 -159v128l261 101l-261 101v128l379 -159v-140z" />
    <glyph glyph-name="question" unicode="?" horiz-adv-x="583" 
d="M177 193v141l76 75h127l20 20v116l-33 32h-165l-29 -29v-65h-154v114l93 93h345l97 -96v-227l-81 -80h-122l-20 -20v-74h-154zM177 0v133h154v-133h-154z" />
    <glyph glyph-name="at" unicode="@" horiz-adv-x="970" 
d="M188 -156l-135 135v550l135 135h594l135 -135v-439l-91 -90h-222l-7 71l-71 -71h-208l-83 83v136l83 83h252v84l-26 26h-127l-16 -17v-39h-152v67l82 81h293l92 -92v-323h45l29 28v373l-75 75h-459l-75 -75v-471l75 -75h475v-100h-543zM402 95h120l48 48v80h-167l-22 -22
v-84z" />
    <glyph glyph-name="A" unicode="A" horiz-adv-x="624" 
d="M8 0l191 690h226l191 -690h-158l-39 155h-225l-39 -155h-147zM307 604l-84 -332h167z" />
    <glyph glyph-name="B" unicode="B" horiz-adv-x="659" 
d="M67 0v690h449l92 -92v-167l-76 -77l77 -77v-185l-92 -92h-450zM221 110h203l31 31v124l-35 35h-199v-190zM221 408h200l33 34v108l-31 31h-202v-173z" />
    <glyph glyph-name="C" unicode="C" horiz-adv-x="639" 
d="M157 0l-102 102v486l102 102h338l101 -101v-134h-154v83l-37 37h-156l-40 -40v-382l40 -40h156l37 37v88h154v-137l-101 -101h-338z" />
    <glyph glyph-name="D" unicode="D" horiz-adv-x="661" 
d="M64 0v690h440l102 -102v-486l-102 -102h-440zM218 115h194l40 40v380l-40 40h-194v-460z" />
    <glyph glyph-name="E" unicode="E" horiz-adv-x="565" 
d="M64 0v690h456v-118h-302v-163h275v-118h-275v-173h304v-118h-458z" />
    <glyph glyph-name="F" unicode="F" horiz-adv-x="533" 
d="M64 0v690h445v-118h-291v-179h265v-117h-265v-276h-154z" />
    <glyph glyph-name="G" unicode="G" horiz-adv-x="654" 
d="M157 0l-102 102v486l102 102h351l95 -95v-113h-154v64l-29 29h-171l-40 -40v-384l40 -40h170l32 32v120h-149v114h303v-279l-99 -98h-349z" />
    <glyph glyph-name="H" unicode="H" horiz-adv-x="667" 
d="M64 0v690h154v-284h231v284h154v-690h-154v271h-231v-271h-154z" />
    <glyph glyph-name="I" unicode="I" horiz-adv-x="460" 
d="M36 0v107h117v476h-117v107h388v-107h-117v-476h117v-107h-388z" />
    <glyph glyph-name="J" unicode="J" horiz-adv-x="425" 
d="M21 0v120h150l41 40v530h154v-588l-103 -102h-242z" />
    <glyph glyph-name="K" unicode="K" horiz-adv-x="652" 
d="M461 0l-138 289l-106 -153v-136h-154v690h154v-362l234 362h172l-193 -283l202 -407h-171z" />
    <glyph glyph-name="L" unicode="L" horiz-adv-x="506" 
d="M64 0v690h154v-567h264v-123h-418z" />
    <glyph glyph-name="M" unicode="M" horiz-adv-x="916" 
d="M64 0v690h234l159 -553l160 553h235v-690h-147v576l-169 -576h-174l-167 576v-576h-131z" />
    <glyph glyph-name="N" unicode="N" horiz-adv-x="669" 
d="M64 0v690h162l242 -459v459h137v-690h-164l-240 463v-463h-137z" />
    <glyph glyph-name="O" unicode="O" horiz-adv-x="661" 
d="M157 0l-102 102v486l102 102h347l102 -102v-486l-102 -102h-347zM249 115h163l40 40v380l-40 40h-163l-40 -40v-380z" />
    <glyph glyph-name="P" unicode="P" horiz-adv-x="631" 
d="M64 0v690h441l100 -101v-248l-100 -101h-287v-240h-154zM218 350h198l35 35v160l-35 35h-198v-230z" />
    <glyph glyph-name="Q" unicode="Q" horiz-adv-x="661" 
d="M480 -169l-107 106v63h-216l-102 102v486l102 102h347l102 -102v-486l-102 -102v-14l66 -65zM249 115h163l40 40v380l-40 40h-163l-40 -40v-380z" />
    <glyph glyph-name="R" unicode="R" horiz-adv-x="651" 
d="M64 0v690h448l97 -96v-216l-86 -86l99 -292h-159l-87 270h-158v-270h-154zM218 379h201l36 36v133l-34 34h-203v-203z" />
    <glyph glyph-name="S" unicode="S" horiz-adv-x="629" 
d="M139 0l-94 93v112h154v-63l29 -29h172l29 30v121l-22 23h-276l-83 82v225l97 96h343l93 -93v-111h-154v62l-29 29h-166l-30 -29v-117l22 -22h277l82 -83v-230l-96 -96h-348z" />
    <glyph glyph-name="T" unicode="T" horiz-adv-x="568" 
d="M207 0v566h-188v124h530v-124h-188v-566h-154z" />
    <glyph glyph-name="U" unicode="U" horiz-adv-x="654" 
d="M162 0l-103 102v588h154v-531l40 -40h148l40 40v531h154v-588l-103 -102h-330z" />
    <glyph glyph-name="V" unicode="V" horiz-adv-x="587" 
d="M179 0l-169 690h159l131 -581l131 581h145l-168 -690h-229z" />
    <glyph glyph-name="W" unicode="W" horiz-adv-x="886" 
d="M138 0l-127 690h146l86 -549l109 549h199l109 -549l86 549h130l-128 -690h-192l-110 553l-111 -553h-197z" />
    <glyph glyph-name="X" unicode="X" horiz-adv-x="623" 
d="M17 0l178 352l-169 338h171l116 -258l120 258h163l-175 -335l185 -355h-174l-126 266l-124 -266h-165z" />
    <glyph glyph-name="Y" unicode="Y" horiz-adv-x="599" 
d="M223 0v211l-216 479h167l132 -328l137 328h150l-217 -479v-211h-153z" />
    <glyph glyph-name="Z" unicode="Z" horiz-adv-x="547" 
d="M31 0v97l295 469h-288v124h472v-97l-295 -468h300v-125h-484z" />
    <glyph glyph-name="bracketleft" unicode="[" horiz-adv-x="358" 
d="M70 -68v825h256v-115h-104v-595h104v-115h-256z" />
    <glyph glyph-name="backslash" unicode="\" horiz-adv-x="365" 
d="M129 758l244 -827h-137l-244 827h137z" />
    <glyph glyph-name="bracketright" unicode="]" horiz-adv-x="358" 
d="M288 757v-825h-256v115h104v595h-104v115h256z" />
    <glyph glyph-name="asciicircum" unicode="^" horiz-adv-x="459" 
d="M13 344l135 346h163l135 -346h-128l-89 263l-90 -263h-126z" />
    <glyph glyph-name="underscore" unicode="_" horiz-adv-x="502" 
d="M-7 -128v98h516v-98h-516z" />
    <glyph glyph-name="grave" unicode="`" horiz-adv-x="300" 
d="M148 545l-82 82v54h86l82 -82v-54h-86z" />
    <glyph glyph-name="a" unicode="a" horiz-adv-x="576" 
d="M122 0l-83 83v136l83 83h254v84l-26 26h-128l-17 -17v-39h-151v67l81 81h295l93 -92v-412h-112l-8 71l-71 -71h-210zM209 95h120l47 48v80h-167l-22 -22v-84z" />
    <glyph glyph-name="b" unicode="b" horiz-adv-x="596" 
d="M57 0v690h147v-249l64 63h187l92 -92v-319l-92 -93h-207l-72 72l-7 -72h-112zM260 96h108l32 32v246l-31 32h-101l-64 -65v-189z" />
    <glyph glyph-name="c" unicode="c" horiz-adv-x="556" 
d="M140 0l-93 93v319l93 93h296l85 -87v-91h-150v56l-26 26h-120l-31 -31v-252l31 -31h120l26 27v56h150v-92l-86 -86h-295z" />
    <glyph glyph-name="d" unicode="d" horiz-adv-x="596" 
d="M141 0l-92 93v319l92 92h187l63 -63v249h148v-690h-112l-8 72l-72 -72h-206zM227 96h109l55 56v189l-64 65h-100l-31 -32v-246z" />
    <glyph glyph-name="e" unicode="e" horiz-adv-x="571" 
d="M139 0l-92 93v319l92 93h294l93 -93v-193h-336v-97l29 -28h144l17 17v42h146v-74l-79 -79h-308zM190 303h194v82l-27 27h-140l-27 -27v-82z" />
    <glyph glyph-name="f" unicode="f" horiz-adv-x="390" 
d="M89 0v400h-68v104h68v104l83 82h209v-99h-123l-22 -21v-66h135v-104h-135v-400h-147z" />
    <glyph glyph-name="g" unicode="g" horiz-adv-x="594" 
d="M138 -175l-81 81v63h138v-32l18 -18h147l31 32v132l-62 -62h-188l-92 92v299l92 92h204l74 -73l8 73h112v-586l-93 -93h-308zM227 117h103l61 61v173l-57 57h-107l-31 -31v-229z" />
    <glyph glyph-name="h" unicode="h" horiz-adv-x="583" 
d="M57 0v690h147v-249l64 63h169l92 -92v-412h-147v363l-31 31h-88l-59 -58v-336h-147z" />
    <glyph glyph-name="i" unicode="i" horiz-adv-x="273" 
d="M210 0h-147v504h147v-504zM63 564v121h147v-121h-147z" />
    <glyph glyph-name="j" unicode="j" horiz-adv-x="272" 
d="M-53 -175v106h96l19 19v554h147v-592l-87 -87h-175zM62 564v121h147v-121h-147z" />
    <glyph glyph-name="k" unicode="k" horiz-adv-x="576" 
d="M397 0l-105 219l-89 -113v-106h-147v690h147v-426l178 240h164l-149 -189l164 -315h-163z" />
    <glyph glyph-name="l" unicode="l" horiz-adv-x="273" 
d="M210 0h-147v690h147v-690z" />
    <glyph glyph-name="m" unicode="m" horiz-adv-x="888" 
d="M57 0v504h112l8 -75l76 75h173l67 -67l67 67h182l92 -92v-412h-147v363l-31 31h-82l-55 -55v-339h-147v363l-31 31h-78l-59 -59v-335h-147z" />
    <glyph glyph-name="n" unicode="n" horiz-adv-x="583" 
d="M57 0v504h112l8 -75l76 75h184l92 -92v-412h-147v363l-31 31h-88l-59 -59v-335h-147z" />
    <glyph glyph-name="o" unicode="o" horiz-adv-x="585" 
d="M141 0l-92 93v319l92 92h303l93 -92v-319l-93 -93h-303zM227 94h131l32 32v253l-32 32h-131l-31 -32v-253z" />
    <glyph glyph-name="p" unicode="p" horiz-adv-x="596" 
d="M57 -175v679h112l7 -72l73 72h206l92 -92v-319l-92 -93h-198l-53 53v-228h-147zM259 99h109l32 31v247l-31 31h-108l-57 -57v-198z" />
    <glyph glyph-name="q" unicode="q" horiz-adv-x="596" 
d="M391 -175v233l-58 -58h-192l-92 93v319l92 92h205l73 -72l8 72h112v-679h-148zM227 99h105l59 59v193l-57 57h-107l-31 -31v-247z" />
    <glyph glyph-name="r" unicode="r" horiz-adv-x="401" 
d="M57 0v504h112l8 -77l77 77h122v-122h-114l-58 -58v-324h-147z" />
    <glyph glyph-name="s" unicode="s" horiz-adv-x="551" 
d="M118 0l-79 79v67h142v-37l16 -16h150l18 18v79l-13 13h-241l-68 68v148l85 86h300l78 -79v-66h-142v36l-16 16h-140l-18 -18v-79l13 -12h241l68 -68v-150l-85 -85h-309z" />
    <glyph glyph-name="t" unicode="t" horiz-adv-x="428" 
d="M183 0l-93 93v307h-73v104h73v134h147v-134h155v-104h-155v-261l29 -29h126v-110h-209z" />
    <glyph glyph-name="u" unicode="u" horiz-adv-x="583" 
d="M146 0l-92 93v411h147v-363l31 -31h87l60 60v334h147v-504h-112l-8 76l-76 -76h-184z" />
    <glyph glyph-name="v" unicode="v" horiz-adv-x="526" 
d="M163 0l-158 504h154l109 -411l109 411h145l-159 -504h-200z" />
    <glyph glyph-name="w" unicode="w" horiz-adv-x="804" 
d="M109 0l-100 504h144l70 -409l92 409h194l93 -409l71 409h122l-100 -504h-201l-89 406l-92 -406h-204z" />
    <glyph glyph-name="x" unicode="x" horiz-adv-x="545" 
d="M372 0l-103 178l-102 -178h-156l160 254l-152 250h166l93 -177l98 177h150l-152 -242l160 -262h-162z" />
    <glyph glyph-name="y" unicode="y" horiz-adv-x="527" 
d="M163 0l-158 504h155l110 -401l107 401h145l-191 -607l-71 -72h-219v105h168l10 11l18 59h-74z" />
    <glyph glyph-name="z" unicode="z" horiz-adv-x="478" 
d="M26 0v83l243 315h-237v106h414v-82l-242 -315h248v-107h-426z" />
    <glyph glyph-name="braceleft" unicode="{" horiz-adv-x="366" 
d="M181 -68l-102 102v232l-23 23h-56v126h56l23 24v216l102 102h153v-115h-63l-40 -40v-186l-63 -63l63 -63v-203l40 -40h63v-115h-153z" />
    <glyph glyph-name="bar" unicode="|" horiz-adv-x="312" 
d="M85 -69v827h142v-827h-142z" />
    <glyph glyph-name="braceright" unicode="}" horiz-adv-x="366" 
d="M287 34l-102 -102h-153v115h63l40 40v203l63 63l-63 63v186l-40 40h-63v115h153l102 -102v-216l23 -24h56v-126h-56l-23 -23v-232z" />
    <glyph glyph-name="asciitilde" unicode="~" horiz-adv-x="452" 
d="M18 511v112l67 67h121l87 -87h21l17 17v70h103v-112l-67 -67h-121l-88 88h-20l-17 -17v-71h-103z" />
    <glyph glyph-name="Adieresis" unicode="&#xc4;" horiz-adv-x="629" 
d="M8 0l191 690h226l191 -690h-158l-39 155h-225l-39 -155h-147zM307 604l-84 -332h167zM349 757v103h108v-103h-108zM170 757v103h109v-103h-109z" />
    <glyph glyph-name="Aring" unicode="&#xc5;" horiz-adv-x="629" 
d="M8 0l191 690h226l191 -690h-158l-39 155h-225l-39 -155h-147zM307 604l-84 -332h167zM248 733l-38 38v85l38 38h131l38 -38v-85l-38 -38h-131zM282 777h62l12 11v50l-12 11h-62l-11 -11v-50z" />
    <glyph glyph-name="Ccedilla" unicode="&#xc7;" horiz-adv-x="639" 
d="M157 0l-102 102v486l102 102h338l101 -101v-134h-154v83l-37 37h-156l-40 -40v-382l40 -40h156l37 37v88h154v-137l-101 -101h-136v-37h53l35 -35v-68l-35 -35h-158v55h105l6 6v25l-6 5h-54l-21 21v63h-127z" />
    <glyph glyph-name="Eacute" unicode="&#xc9;" horiz-adv-x="565" 
d="M64 0v690h456v-118h-302v-163h275v-118h-275v-173h304v-118h-458zM231 741v54l82 82h86v-54l-82 -82h-86z" />
    <glyph glyph-name="Ntilde" unicode="&#xd1;" horiz-adv-x="667" 
d="M64 0v690h162l242 -459v459h137v-690h-164l-240 463v-463h-137zM185 747v76l44 44h96l53 -52h16l8 9v43h80v-76l-45 -44h-96l-53 53h-15l-9 -9v-44h-79z" />
    <glyph glyph-name="Odieresis" unicode="&#xd6;" horiz-adv-x="661" 
d="M365 757v103h108v-103h-108zM186 757v103h109v-103h-109zM157 0l-102 102v486l102 102h347l102 -102v-486l-102 -102h-347zM249 115h163l40 40v380l-40 40h-163l-40 -40v-380z" />
    <glyph glyph-name="Udieresis" unicode="&#xdc;" horiz-adv-x="654" 
d="M362 757v103h108v-103h-108zM183 757v103h109v-103h-109zM162 0l-103 102v588h154v-531l40 -40h148l40 40v531h154v-588l-103 -102h-330z" />
    <glyph glyph-name="aacute" unicode="&#xe1;" horiz-adv-x="576" 
d="M122 0l-83 83v136l83 83h254v84l-26 26h-128l-17 -17v-39h-151v67l81 81h295l93 -92v-412h-112l-8 71l-71 -71h-210zM209 95h120l47 48v80h-167l-22 -22v-84zM219 545v54l82 82h86v-54l-82 -82h-86z" />
    <glyph glyph-name="agrave" unicode="&#xe0;" horiz-adv-x="576" 
d="M122 0l-83 83v136l83 83h254v84l-26 26h-128l-17 -17v-39h-151v67l81 81h295l93 -92v-412h-112l-8 71l-71 -71h-210zM209 95h120l47 48v80h-167l-22 -22v-84zM256 545l-82 82v54h86l82 -82v-54h-86z" />
    <glyph glyph-name="acircumflex" unicode="&#xe2;" horiz-adv-x="576" 
d="M122 0l-83 83v136l83 83h254v84l-26 26h-128l-17 -17v-39h-151v67l81 81h295l93 -92v-412h-112l-8 71l-71 -71h-210zM209 95h120l47 48v80h-167l-22 -22v-84zM137 548v50l78 78h131l77 -78v-50h-73l-66 66h-7l-66 -66h-74z" />
    <glyph glyph-name="adieresis" unicode="&#xe4;" horiz-adv-x="576" 
d="M122 0l-83 83v136l83 83h254v84l-26 26h-128l-17 -17v-39h-151v67l81 81h295l93 -92v-412h-112l-8 71l-71 -71h-210zM209 95h120l47 48v80h-167l-22 -22v-84zM316 561v103h108v-103h-108zM137 561v103h109v-103h-109z" />
    <glyph glyph-name="atilde" unicode="&#xe3;" horiz-adv-x="576" 
d="M122 0l-83 83v136l83 83h254v84l-26 26h-128l-17 -17v-39h-151v67l81 81h295l93 -92v-412h-112l-8 71l-71 -71h-210zM209 95h120l47 48v80h-167l-22 -22v-84zM132 551v76l44 44h96l53 -52h16l8 9v43h80v-76l-45 -44h-96l-53 53h-15l-9 -9v-44h-79z" />
    <glyph glyph-name="aring" unicode="&#xe5;" horiz-adv-x="576" 
d="M122 0l-83 83v136l83 83h254v84l-26 26h-128l-17 -17v-39h-151v67l81 81h295l93 -92v-412h-112l-8 71l-71 -71h-210zM209 95h120l47 48v80h-167l-22 -22v-84zM215 537l-38 38v85l38 38h131l38 -38v-85l-38 -38h-131zM249 581h62l12 11v50l-12 11h-62l-11 -11v-50z" />
    <glyph glyph-name="ccedilla" unicode="&#xe7;" horiz-adv-x="556" 
d="M140 0l-93 93v319l93 93h296l85 -87v-91h-150v56l-26 26h-120l-31 -31v-252l31 -31h120l26 27v56h150v-92l-86 -86h-117v-37h53l35 -35v-68l-35 -35h-158v55h105l6 6v25l-6 5h-54l-21 21v63h-103z" />
    <glyph glyph-name="eacute" unicode="&#xe9;" horiz-adv-x="571" 
d="M139 0l-92 93v319l92 93h294l93 -93v-193h-336v-97l29 -28h144l17 17v42h146v-74l-79 -79h-308zM190 303h194v82l-27 27h-140l-27 -27v-82zM224 545v54l82 82h86v-54l-82 -82h-86z" />
    <glyph glyph-name="egrave" unicode="&#xe8;" horiz-adv-x="571" 
d="M139 0l-92 93v319l92 93h294l93 -93v-193h-336v-97l29 -28h144l17 17v42h146v-74l-79 -79h-308zM190 303h194v82l-27 27h-140l-27 -27v-82zM261 545l-82 82v54h86l82 -82v-54h-86z" />
    <glyph glyph-name="ecircumflex" unicode="&#xea;" horiz-adv-x="571" 
d="M142 548v50l78 78h131l77 -78v-50h-73l-66 66h-7l-66 -66h-74zM139 0l-92 93v319l92 93h294l93 -93v-193h-336v-97l29 -28h144l17 17v42h146v-74l-79 -79h-308zM190 303h194v82l-27 27h-140l-27 -27v-82z" />
    <glyph glyph-name="edieresis" unicode="&#xeb;" horiz-adv-x="571" 
d="M321 561v103h108v-103h-108zM142 561v103h109v-103h-109zM139 0l-92 93v319l92 93h294l93 -93v-193h-336v-97l29 -28h144l17 17v42h146v-74l-79 -79h-308zM190 303h194v82l-27 27h-140l-27 -27v-82z" />
    <glyph glyph-name="iacute" unicode="&#xed;" horiz-adv-x="273" 
d="M210 0h-147v504h147v-504zM74 545v54l82 82h86v-54l-82 -82h-86z" />
    <glyph glyph-name="igrave" unicode="&#xec;" horiz-adv-x="273" 
d="M210 0h-147v504h147v-504zM113 545l-82 82v54h86l82 -82v-54h-86z" />
    <glyph glyph-name="icircumflex" unicode="&#xee;" horiz-adv-x="273" 
d="M-7 548v50l78 78h131l77 -78v-50h-73l-66 66h-7l-66 -66h-74zM210 0h-147v504h147v-504z" />
    <glyph glyph-name="idieresis" unicode="&#xef;" horiz-adv-x="273" 
d="M172 561v103h108v-103h-108zM-7 561v103h109v-103h-109zM210 0h-147v504h147v-504z" />
    <glyph glyph-name="ntilde" unicode="&#xf1;" horiz-adv-x="583" 
d="M57 0v504h112l8 -75l76 75h184l92 -92v-412h-147v363l-31 31h-88l-59 -59v-335h-147zM153 551v76l44 44h96l53 -52h16l8 9v43h80v-76l-45 -44h-96l-53 53h-15l-9 -9v-44h-79z" />
    <glyph glyph-name="oacute" unicode="&#xf3;" horiz-adv-x="585" 
d="M141 0l-92 93v319l92 92h303l93 -92v-319l-93 -93h-303zM227 94h131l32 32v253l-32 32h-131l-31 -32v-253zM230 545v54l82 82h86v-54l-82 -82h-86z" />
    <glyph glyph-name="ograve" unicode="&#xf2;" horiz-adv-x="585" 
d="M141 0l-92 93v319l92 92h303l93 -92v-319l-93 -93h-303zM227 94h131l32 32v253l-32 32h-131l-31 -32v-253zM268 545l-82 82v54h86l82 -82v-54h-86z" />
    <glyph glyph-name="ocircumflex" unicode="&#xf4;" horiz-adv-x="585" 
d="M148 548v50l78 78h131l77 -78v-50h-73l-66 66h-7l-66 -66h-74zM141 0l-92 93v319l92 92h303l93 -92v-319l-93 -93h-303zM227 94h131l32 32v253l-32 32h-131l-31 -32v-253z" />
    <glyph glyph-name="odieresis" unicode="&#xf6;" horiz-adv-x="585" 
d="M327 561v103h108v-103h-108zM148 561v103h109v-103h-109zM141 0l-92 93v319l92 92h303l93 -92v-319l-93 -93h-303zM227 94h131l32 32v253l-32 32h-131l-31 -32v-253z" />
    <glyph glyph-name="otilde" unicode="&#xf5;" horiz-adv-x="585" 
d="M141 0l-92 93v319l92 92h303l93 -92v-319l-93 -93h-303zM227 94h131l32 32v253l-32 32h-131l-31 -32v-253zM144 551v76l44 44h96l53 -52h16l8 9v43h80v-76l-45 -44h-96l-53 53h-15l-9 -9v-44h-79z" />
    <glyph glyph-name="uacute" unicode="&#xfa;" horiz-adv-x="583" 
d="M146 0l-92 93v411h147v-363l31 -31h87l60 60v334h147v-504h-112l-8 76l-76 -76h-184zM227 545v54l82 82h86v-54l-82 -82h-86z" />
    <glyph glyph-name="ugrave" unicode="&#xf9;" horiz-adv-x="583" 
d="M146 0l-92 93v411h147v-363l31 -31h87l60 60v334h147v-504h-112l-8 76l-76 -76h-184zM265 545l-82 82v54h86l82 -82v-54h-86z" />
    <glyph glyph-name="ucircumflex" unicode="&#xfb;" horiz-adv-x="583" 
d="M145 548v50l78 78h131l77 -78v-50h-73l-66 66h-7l-66 -66h-74zM146 0l-92 93v411h147v-363l31 -31h87l60 60v334h147v-504h-112l-8 76l-76 -76h-184z" />
    <glyph glyph-name="udieresis" unicode="&#xfc;" horiz-adv-x="583" 
d="M324 561v103h108v-103h-108zM145 561v103h109v-103h-109zM146 0l-92 93v411h147v-363l31 -31h87l60 60v334h147v-504h-112l-8 76l-76 -76h-184z" />
    <glyph glyph-name="dagger" unicode="&#x2020;" horiz-adv-x="317" 
d="M103 250v261h-81v91h81v88h111v-88h81v-91h-81v-261h-111z" />
    <glyph glyph-name="degree" unicode="&#xb0;" horiz-adv-x="319" 
d="M79 426l-53 53v158l53 53h161l52 -53v-158l-52 -53h-161zM121 492h76l16 15v102l-16 16h-76l-15 -16v-102z" />
    <glyph glyph-name="cent" unicode="&#xa2;" horiz-adv-x="630" 
d="M152 69l-103 102v348l103 103h97v91h143v-91h99l100 -101v-113h-153v64l-35 35h-164l-36 -36v-253l36 -36h164l35 34v68h153v-115l-100 -100h-99v-92h-143v92h-97z" />
    <glyph glyph-name="sterling" unicode="&#xa3;" horiz-adv-x="628" 
d="M37 0v111l50 50v116h-51v116h51v195l103 102h308l100 -101v-126h-153v77l-35 35h-131l-38 -38v-144h211v-116h-211v-114l-40 -41h397v-122h-561z" />
    <glyph glyph-name="section" unicode="&#xa7;" horiz-adv-x="631" 
d="M139 -118l-93 93v110h154v-60l29 -30h172l30 30v124h-329l-52 53v51h535v-275l-96 -96h-350zM50 320v274l96 96h345l92 -91v-109h-154v58l-29 29h-167l-29 -29v-124h328l52 -53v-51h-534z" />
    <glyph glyph-name="bullet" unicode="&#x2022;" horiz-adv-x="286" 
d="M86 224l-58 59v124l58 59h114l58 -59v-124l-58 -59h-114z" />
    <glyph glyph-name="paragraph" unicode="&#xb6;" horiz-adv-x="848" 
d="M221 221h172v359h-172l-35 -35v-289zM629 580h-82v-698h-154v229h-261l-100 100v378l100 101h651v-808h-154v698z" />
    <glyph glyph-name="germandbls" unicode="&#xdf;" horiz-adv-x="626" 
d="M57 0v597l93 93h339l92 -93v-175l-63 -63l65 -65v-201l-93 -93h-234v96h150l29 29v162l-23 24h-156v95h156l22 23v136l-29 29h-171l-30 -29v-565h-147z" />
    <glyph glyph-name="registered" unicode="&#xae;" horiz-adv-x="433" 
d="M133 376v222h134l35 -36v-69l-27 -28l33 -89h-49l-29 77h-48v-77h-49zM92 283l-67 67v273l67 67h249l67 -67v-273l-67 -67h-249zM112 327h210l38 38v243l-38 38h-210l-38 -38v-243zM182 493h60l12 11v42l-12 12h-60v-65z" />
    <glyph glyph-name="copyright" unicode="&#xa9;" horiz-adv-x="822" 
d="M288 152l-59 59v269l60 59h243l60 -59v-88h-115v52l-16 16h-100l-18 -17v-195l18 -16h101l15 14v53h115v-88l-60 -59h-244zM171 0l-116 117v456l116 117h479l117 -117v-456l-117 -117h-479zM221 84h379l63 64v394l-63 64h-379l-64 -64v-394z" />
    <glyph glyph-name="trademark" unicode="&#x2122;" horiz-adv-x="583" 
d="M82 401v237h-70v52h203v-52h-68v-237h-65zM234 401v289h93l59 -229l58 229h93v-289h-58v246l-62 -246h-66l-63 245v-245h-54z" />
    <glyph glyph-name="acute" unicode="&#xb4;" horiz-adv-x="300" 
d="M66 545v54l82 82h86v-54l-82 -82h-86z" />
    <glyph glyph-name="dieresis" unicode="&#xa8;" horiz-adv-x="419" 
d="M245 561v103h108v-103h-108zM66 561v103h109v-103h-109z" />
    <glyph glyph-name="AE" unicode="&#xc6;" horiz-adv-x="875" 
d="M8 0l191 690h631v-118h-374l45 -164h302v-116h-270l48 -174h251v-118h-374l-39 155h-225l-39 -155h-147zM307 604l-84 -332h167z" />
    <glyph glyph-name="Oslash" unicode="&#xd8;" horiz-adv-x="661" 
d="M157 0l-102 102v486l102 102h347l102 -102v-486l-102 -102h-347zM203 156l206 424h-166l-40 -40v-384zM418 110l40 40v384l-206 -424h166z" />
    <glyph glyph-name="yen" unicode="&#xa5;" horiz-adv-x="600" 
d="M49 226v78h132l-174 386h171l128 -324l134 324h153l-176 -386h133v-78h-168l-6 -13v-29h174v-78h-174v-106h-153v106h-174v78h174v29l-6 13h-168z" />
    <glyph glyph-name="ordfeminine" unicode="&#xaa;" horiz-adv-x="383" 
d="M90 343l-61 62v90l61 61h164v45l-17 18h-84l-12 -13v-12h-104v40l57 56h198l62 -62v-285h-77l-7 46l-46 -46h-134zM146 414h80l28 28v50h-109l-16 -16v-45z" />
    <glyph glyph-name="ordmasculine" unicode="&#xba;" horiz-adv-x="383" 
d="M91 343l-62 62v223l62 62h202l61 -62v-223l-61 -62h-202zM151 419h81l21 21v153l-21 22h-81l-21 -22v-153z" />
    <glyph glyph-name="ae" unicode="&#xe6;" horiz-adv-x="897" 
d="M121 0l-83 83v134l84 84h251v86l-26 25h-127l-17 -17v-39h-151v67l82 82h263l48 -48l48 48h266l93 -93v-191h-336v-101l27 -26h146l17 17v42h146v-74l-79 -79h-281l-47 48l-48 -48h-276zM205 95h130l38 38v88h-168l-21 -21v-83zM516 301h194v84l-27 27h-139l-28 -27v-84z
" />
    <glyph glyph-name="oslash" unicode="&#xf8;" horiz-adv-x="585" 
d="M141 0l-92 93v319l92 92h303l93 -93v-318l-93 -93h-303zM191 153l168 261h-134l-34 -34v-227zM361 91l34 34v227l-168 -261h134z" />
    <glyph glyph-name="questiondown" unicode="&#xbf;" horiz-adv-x="583" 
d="M406 497v-141l-76 -75h-127l-20 -20v-116l33 -32h165l29 29v65h154v-114l-93 -93h-345l-97 96v227l81 80h122l20 20v74h154zM406 690v-133h-154v133h154z" />
    <glyph glyph-name="exclamdown" unicode="&#xa1;" horiz-adv-x="298" 
d="M226 496v-496h-154v496h154zM226 690v-133h-154v133h154z" />
    <glyph glyph-name="florin" unicode="&#x192;" horiz-adv-x="476" 
d="M27 0v113h72l36 36v172h-104v114h104v153l103 102h211v-113h-123l-37 -36v-106h147v-114h-147v-219l-102 -102h-160z" />
    <glyph glyph-name="guillemotleft" unicode="&#xab;" horiz-adv-x="440" 
d="M119 134l-108 210l108 211h118l-107 -211l107 -210h-118zM300 134l-108 210l108 211h119l-108 -211l108 -210h-119z" />
    <glyph glyph-name="guillemotright" unicode="&#xbb;" horiz-adv-x="440" 
d="M429 344l-108 -210h-118l107 210l-107 211h118zM248 344l-108 -210h-119l108 210l-108 211h119z" />
    <glyph glyph-name="ellipsis" unicode="&#x2026;" horiz-adv-x="632" 
d="M33 0v154h145v-154h-145zM244 0v154h145v-154h-145zM454 0v154h145v-154h-145z" />
    <glyph glyph-name="Agrave" unicode="&#xc0;" horiz-adv-x="629" 
d="M8 0l191 690h226l191 -690h-158l-39 155h-225l-39 -155h-147zM307 604l-84 -332h167zM289 741l-82 82v54h86l82 -82v-54h-86z" />
    <glyph glyph-name="Atilde" unicode="&#xc3;" horiz-adv-x="629" 
d="M8 0l191 690h226l191 -690h-158l-39 155h-225l-39 -155h-147zM307 604l-84 -332h167zM166 747v76l44 44h96l53 -52h16l8 9v43h80v-76l-45 -44h-96l-53 53h-15l-9 -9v-44h-79z" />
    <glyph glyph-name="Otilde" unicode="&#xd5;" horiz-adv-x="661" 
d="M157 0l-102 102v486l102 102h347l102 -102v-486l-102 -102h-347zM249 115h163l40 40v380l-40 40h-163l-40 -40v-380zM182 747v76l44 44h96l53 -52h16l8 9v43h80v-76l-45 -44h-96l-53 53h-15l-9 -9v-44h-79z" />
    <glyph glyph-name="OE" unicode="&#x152;" horiz-adv-x="943" 
d="M157 0l-102 102v486l102 102h741v-118h-301v-165h275v-115h-275v-174h303v-118h-743zM249 115h194v460h-194l-40 -40v-380z" />
    <glyph glyph-name="oe" unicode="&#x153;" horiz-adv-x="912" 
d="M139 0l-92 93v319l92 93h274l48 -48l47 48h266l93 -93v-193h-336v-99l27 -26h146l17 17v42h146v-74l-79 -79h-280l-47 48l-48 -48h-274zM225 94h132l31 32v253l-31 31h-132l-31 -31v-253zM531 303h194v82l-27 27h-139l-28 -27v-82z" />
    <glyph glyph-name="endash" unicode="&#x2013;" horiz-adv-x="428" 
d="M13 286v121h402v-121h-402z" />
    <glyph glyph-name="emdash" unicode="&#x2014;" horiz-adv-x="565" 
d="M13 286v121h539v-121h-539z" />
    <glyph glyph-name="quotedblleft" unicode="&#x201c;" horiz-adv-x="418" 
d="M39 424v213l53 53h91v-60h-54l-7 -7v-50h61v-149h-144zM236 424v213l53 53h90v-60h-53l-7 -7v-50h60v-149h-143z" />
    <glyph glyph-name="quotedblright" unicode="&#x201d;" horiz-adv-x="418" 
d="M379 690v-213l-53 -53h-91v60h54l7 7v50h-61v149h144zM182 690v-213l-53 -53h-90v60h53l7 7v50h-60v149h143z" />
    <glyph glyph-name="quoteleft" unicode="&#x2018;" horiz-adv-x="221" 
d="M39 424v213l53 53h90v-60h-53l-7 -7v-50h60v-149h-143z" />
    <glyph glyph-name="quoteright" unicode="&#x2019;" horiz-adv-x="221" 
d="M182 690v-213l-53 -53h-90v60h53l7 7v50h-60v149h143z" />
    <glyph glyph-name="divide" unicode="&#xf7;" horiz-adv-x="398" 
d="M143 132v106h112v-106h-112zM15 286v115h368v-115h-368zM143 448v107h112v-107h-112z" />
    <glyph glyph-name="ydieresis" unicode="&#xff;" horiz-adv-x="527" 
d="M163 0l-158 504h155l110 -401l107 401h145l-191 -607l-71 -72h-219v105h168l10 11l18 59h-74zM298 561v103h108v-103h-108zM119 561v103h109v-103h-109z" />
    <glyph glyph-name="Ydieresis" unicode="&#x178;" horiz-adv-x="600" 
d="M223 0v211l-216 479h167l132 -328l137 328h150l-217 -479v-211h-153zM335 757v103h108v-103h-108zM156 757v103h109v-103h-109z" />
    <glyph glyph-name="fraction" unicode="&#x2044;" horiz-adv-x="506" 
d="M0 0l402 690h104l-403 -690h-103z" />
    <glyph glyph-name="Euro" unicode="&#x20ac;" horiz-adv-x="667" 
d="M19 372v79h60v137l103 102h341l100 -100v-123h-153v71l-38 37h-166l-32 -32v-92h195v-79h-195v-47h195v-79h-195v-101l32 -32h166l38 36v76h153v-125l-100 -100h-341l-103 102v144h-60v79h60v47h-60z" />
    <glyph glyph-name="guilsinglleft" unicode="&#x2039;" horiz-adv-x="259" 
d="M119 134l-108 210l108 211h119l-108 -211l108 -210h-119z" />
    <glyph glyph-name="guilsinglright" unicode="&#x203a;" horiz-adv-x="259" 
d="M248 344l-108 -210h-119l108 210l-108 211h119z" />
    <glyph glyph-name="fi" unicode="&#xfb01;" horiz-adv-x="663" 
d="M89 0v400h-68v104h68v104l83 82h209v-99h-123l-22 -21v-66h135v-104h-135v-400h-147zM600 0h-147v504h147v-504zM453 564v121h147v-121h-147z" />
    <glyph glyph-name="fl" unicode="&#xfb02;" horiz-adv-x="663" 
d="M89 0v400h-68v104h68v104l83 82h209v-99h-123l-22 -21v-66h135v-104h-135v-400h-147zM600 0h-147v690h147v-690z" />
    <glyph glyph-name="daggerdbl" unicode="&#x2021;" horiz-adv-x="317" 
d="M103 250v80h-81v91h81v98h-81v90h81v81h111v-81h81v-90h-81v-98h81v-91h-81v-80h-111z" />
    <glyph glyph-name="periodcentered" unicode="&#xb7;" horiz-adv-x="240" 
d="M47 289v153h146v-153h-146z" />
    <glyph glyph-name="quotesinglbase" unicode="&#x201a;" horiz-adv-x="221" 
d="M39 -117v60h53l7 7v50h-60v149h143v-213l-53 -53h-90z" />
    <glyph glyph-name="quotedblbase" unicode="&#x201e;" horiz-adv-x="418" 
d="M39 -117v60h54l6 7v50h-60v149h144v-213l-53 -53h-91zM236 -117v60h53l7 7v50h-60v149h143v-213l-53 -53h-90z" />
    <glyph glyph-name="perthousand" unicode="&#x2030;" horiz-adv-x="1186" 
d="M92 351l-68 69v202l68 68h190l68 -68v-202l-68 -69h-190zM148 429h77l21 20v145l-21 21h-77l-21 -21v-145zM527 0l-68 68v202l68 69h189l69 -69v-202l-68 -68h-190zM584 76h76l21 21v145l-21 20h-76l-21 -20v-145zM904 0l-68 68v202l68 69h189l69 -69v-202l-68 -68h-190z
M961 76h76l21 21v145l-21 20h-76l-21 -20v-145zM151 0l402 690h103l-402 -690h-103z" />
    <glyph glyph-name="Acircumflex" unicode="&#xc2;" horiz-adv-x="629" 
d="M8 0l191 690h226l191 -690h-158l-39 155h-225l-39 -155h-147zM307 604l-84 -332h167zM170 744v50l78 78h131l77 -78v-50h-73l-66 66h-7l-66 -66h-74z" />
    <glyph glyph-name="Ecircumflex" unicode="&#xca;" horiz-adv-x="565" 
d="M149 744v50l78 78h131l77 -78v-50h-73l-66 66h-7l-66 -66h-74zM64 0v690h456v-118h-302v-163h275v-118h-275v-173h304v-118h-458z" />
    <glyph glyph-name="Aacute" unicode="&#xc1;" horiz-adv-x="629" 
d="M8 0l191 690h226l191 -690h-158l-39 155h-225l-39 -155h-147zM307 604l-84 -332h167zM252 741v54l82 82h86v-54l-82 -82h-86z" />
    <glyph glyph-name="Edieresis" unicode="&#xcb;" horiz-adv-x="565" 
d="M328 757v103h108v-103h-108zM149 757v103h109v-103h-109zM64 0v690h456v-118h-302v-163h275v-118h-275v-173h304v-118h-458z" />
    <glyph glyph-name="Egrave" unicode="&#xc8;" horiz-adv-x="565" 
d="M64 0v690h456v-118h-302v-163h275v-118h-275v-173h304v-118h-458zM268 741l-82 82v54h86l82 -82v-54h-86z" />
    <glyph glyph-name="Iacute" unicode="&#xcd;" horiz-adv-x="460" 
d="M36 0v107h117v476h-117v107h388v-107h-117v-476h117v-107h-388zM168 741v54l82 82h86v-54l-82 -82h-86z" />
    <glyph glyph-name="Icircumflex" unicode="&#xce;" horiz-adv-x="460" 
d="M36 0v107h117v476h-117v107h388v-107h-117v-476h117v-107h-388zM86 744v50l78 78h131l77 -78v-50h-73l-66 66h-7l-66 -66h-74z" />
    <glyph glyph-name="Idieresis" unicode="&#xcf;" horiz-adv-x="460" 
d="M36 0v107h117v476h-117v107h388v-107h-117v-476h117v-107h-388zM265 757v103h108v-103h-108zM86 757v103h109v-103h-109z" />
    <glyph glyph-name="Igrave" unicode="&#xcc;" horiz-adv-x="460" 
d="M36 0v107h117v476h-117v107h388v-107h-117v-476h117v-107h-388zM206 741l-82 82v54h86l82 -82v-54h-86z" />
    <glyph glyph-name="Oacute" unicode="&#xd3;" horiz-adv-x="661" 
d="M268 741v54l82 82h86v-54l-82 -82h-86zM157 0l-102 102v486l102 102h347l102 -102v-486l-102 -102h-347zM249 115h163l40 40v380l-40 40h-163l-40 -40v-380z" />
    <glyph glyph-name="Ocircumflex" unicode="&#xd4;" horiz-adv-x="661" 
d="M186 744v50l78 78h131l77 -78v-50h-73l-66 66h-7l-66 -66h-74zM157 0l-102 102v486l102 102h347l102 -102v-486l-102 -102h-347zM249 115h163l40 40v380l-40 40h-163l-40 -40v-380z" />
    <glyph glyph-name="Ograve" unicode="&#xd2;" horiz-adv-x="661" 
d="M157 0l-102 102v486l102 102h347l102 -102v-486l-102 -102h-347zM249 115h163l40 40v380l-40 40h-163l-40 -40v-380zM306 741l-82 82v54h86l82 -82v-54h-86z" />
    <glyph glyph-name="Uacute" unicode="&#xda;" horiz-adv-x="654" 
d="M265 741v54l82 82h86v-54l-82 -82h-86zM162 0l-103 102v588h154v-531l40 -40h148l40 40v531h154v-588l-103 -102h-330z" />
    <glyph glyph-name="Ucircumflex" unicode="&#xdb;" horiz-adv-x="654" 
d="M183 744v50l78 78h131l77 -78v-50h-73l-66 66h-7l-66 -66h-74zM162 0l-103 102v588h154v-531l40 -40h148l40 40v531h154v-588l-103 -102h-330z" />
    <glyph glyph-name="Ugrave" unicode="&#xd9;" horiz-adv-x="654" 
d="M162 0l-103 102v588h154v-531l40 -40h148l40 40v531h154v-588l-103 -102h-330zM302 741l-82 82v54h86l82 -82v-54h-86z" />
    <glyph glyph-name="dotlessi" unicode="&#x131;" horiz-adv-x="273" 
d="M210 0h-147v504h147v-504z" />
    <glyph glyph-name="circumflex" unicode="&#x2c6;" horiz-adv-x="419" 
d="M66 548v50l78 78h131l77 -78v-50h-73l-66 66h-7l-66 -66h-74z" />
    <glyph glyph-name="tilde" unicode="&#x2dc;" horiz-adv-x="429" 
d="M66 551v76l44 44h96l53 -52h16l8 9v43h80v-76l-45 -44h-96l-53 53h-15l-9 -9v-44h-79z" />
    <glyph glyph-name="macron" unicode="&#xaf;" horiz-adv-x="379" 
d="M66 568v86h247v-86h-247z" />
    <glyph glyph-name="breve" unicode="&#x2d8;" horiz-adv-x="415" 
d="M111 552l-45 45v71h93v-40l11 -11h76l11 11v40h92v-71l-46 -45h-192z" />
    <glyph glyph-name="dotaccent" unicode="&#x2d9;" horiz-adv-x="268" 
d="M97 550l-31 31v67l31 30h74l31 -30v-67l-31 -31h-74z" />
    <glyph glyph-name="ring" unicode="&#x2da;" horiz-adv-x="339" 
d="M104 537l-38 38v85l38 38h131l38 -38v-85l-38 -38h-131zM138 581h62l12 11v50l-12 11h-62l-11 -11v-50z" />
    <glyph glyph-name="cedilla" unicode="&#xb8;" horiz-adv-x="325" 
d="M66 -175v55h105l6 6v25l-6 5h-54l-21 21v63h75v-37h53l35 -35v-68l-35 -35h-158z" />
    <glyph glyph-name="hungarumlaut" unicode="&#x2dd;" horiz-adv-x="419" 
d="M66 545v54l82 82h59v-54l-82 -82h-59zM212 545v54l82 82h59v-54l-82 -82h-59z" />
    <glyph glyph-name="ogonek" unicode="&#x2db;" horiz-adv-x="292" 
d="M101 -175l-35 35v75l66 65h94l-76 -76v-36l7 -6h69v-57h-125z" />
    <glyph glyph-name="caron" unicode="&#x2c7;" horiz-adv-x="419" 
d="M144 548l-78 78v50h74l66 -66h7l66 66h73v-50l-77 -78h-131z" />
    <glyph glyph-name="commaaccent" horiz-adv-x="229" 
d="M66 -175v143h96v-103l-40 -40h-56z" />
    <glyph glyph-name="uni0237" unicode="&#x237;" horiz-adv-x="270" 
d="M-55 -175v106h96l19 19v554h147v-592l-87 -87h-175z" />
    <glyph glyph-name="Dcroat" unicode="&#x110;" horiz-adv-x="677" 
d="M25 283v122h55v285h440l102 -102v-486l-102 -102h-440v283h-55zM234 115h194l40 40v380l-40 40h-194v-170h101v-122h-101v-168z" />
    <glyph glyph-name="dcroat" unicode="&#x111;" horiz-adv-x="596" 
d="M265 553v82h126v55h148v-55h54v-82h-54v-553h-112l-8 72l-72 -72h-206l-92 93v319l92 92h187l63 -63v112h-126zM227 96h109l55 56v189l-64 65h-100l-31 -32v-246z" />
    <glyph glyph-name="Abreve" unicode="&#x102;" horiz-adv-x="629" 
d="M8 0l191 690h226l191 -690h-158l-39 155h-225l-39 -155h-147zM307 604l-84 -332h167zM217 748l-45 45v71h93v-40l11 -11h76l11 11v40h92v-71l-46 -45h-192z" />
    <glyph glyph-name="Amacron" unicode="&#x100;" horiz-adv-x="629" 
d="M8 0l191 690h226l191 -690h-158l-39 155h-225l-39 -155h-147zM307 604l-84 -332h167zM190 764v86h247v-86h-247z" />
    <glyph glyph-name="Aogonek" unicode="&#x104;" horiz-adv-x="624" 
d="M8 0l191 690h226l191 -690h-67l-76 -76v-36l6 -6h70v-56h-125l-35 34v74l68 68l-38 153h-225l-39 -155h-147zM307 604l-84 -332h167z" />
    <glyph glyph-name="Cacute" unicode="&#x106;" horiz-adv-x="639" 
d="M263 741v54l82 82h86v-54l-82 -82h-86zM157 0l-102 102v486l102 102h338l101 -101v-134h-154v83l-37 37h-156l-40 -40v-382l40 -40h156l37 37v88h154v-137l-101 -101h-338z" />
    <glyph glyph-name="Ccaron" unicode="&#x10c;" horiz-adv-x="639" 
d="M259 744l-78 78v50h74l66 -66h7l66 66h73v-50l-77 -78h-131zM157 0l-102 102v486l102 102h338l101 -101v-134h-154v83l-37 37h-156l-40 -40v-382l40 -40h156l37 37v88h154v-137l-101 -101h-338z" />
    <glyph glyph-name="Ccircumflex" unicode="&#x108;" horiz-adv-x="639" 
d="M181 744v50l78 78h131l77 -78v-50h-73l-66 66h-7l-66 -66h-74zM157 0l-102 102v486l102 102h338l101 -101v-134h-154v83l-37 37h-156l-40 -40v-382l40 -40h156l37 37v88h154v-137l-101 -101h-338z" />
    <glyph glyph-name="Dcaron" unicode="&#x10e;" horiz-adv-x="661" 
d="M249 744l-78 78v50h74l66 -66h7l66 66h73v-50l-77 -78h-131zM64 0v690h440l102 -102v-486l-102 -102h-440zM218 115h194l40 40v380l-40 40h-194v-460z" />
    <glyph glyph-name="Ecaron" unicode="&#x11a;" horiz-adv-x="565" 
d="M227 744l-78 78v50h74l66 -66h7l66 66h73v-50l-77 -78h-131zM64 0v690h456v-118h-302v-163h275v-118h-275v-173h304v-118h-458z" />
    <glyph glyph-name="Edotaccent" unicode="&#x116;" horiz-adv-x="565" 
d="M64 0v690h456v-118h-302v-163h275v-118h-275v-173h304v-118h-458zM256 746l-31 31v67l31 30h74l31 -30v-67l-31 -31h-74z" />
    <glyph glyph-name="Emacron" unicode="&#x112;" horiz-adv-x="565" 
d="M64 0v690h456v-118h-302v-163h275v-118h-275v-173h304v-118h-458zM169 764v86h247v-86h-247z" />
    <glyph glyph-name="Eogonek" unicode="&#x118;" horiz-adv-x="565" 
d="M64 0v690h456v-118h-302v-163h275v-118h-275v-173h304v-118l-76 -76v-36l6 -6h70v-56h-126l-34 34v75l65 65h-363z" />
    <glyph glyph-name="Gbreve" unicode="&#x11e;" horiz-adv-x="654" 
d="M157 0l-102 102v486l102 102h351l95 -95v-113h-154v64l-29 29h-171l-40 -40v-384l40 -40h170l32 32v120h-149v114h303v-279l-99 -98h-349zM233 748l-45 45v71h93v-40l11 -11h76l11 11v40h92v-71l-46 -45h-192z" />
    <glyph glyph-name="Gcircumflex" unicode="&#x11c;" horiz-adv-x="654" 
d="M185 744v50l78 78h131l77 -78v-50h-73l-66 66h-7l-66 -66h-74zM157 0l-102 102v486l102 102h351l95 -95v-113h-154v64l-29 29h-171l-40 -40v-384l40 -40h170l32 32v120h-149v114h303v-279l-99 -98h-349z" />
    <glyph glyph-name="Gcommaaccent" unicode="&#x122;" horiz-adv-x="654" 
d="M281 -175v143h96v-103l-40 -40h-56zM157 0l-102 102v486l102 102h351l95 -95v-113h-154v64l-29 29h-171l-40 -40v-384l40 -40h170l32 32v120h-149v114h303v-279l-99 -98h-349z" />
    <glyph glyph-name="Hcircumflex" unicode="&#x124;" horiz-adv-x="667" 
d="M190 744v50l78 78h131l77 -78v-50h-73l-66 66h-7l-66 -66h-74zM64 0v690h154v-284h231v284h154v-690h-154v271h-231v-271h-154z" />
    <glyph glyph-name="Idotaccent" unicode="&#x130;" horiz-adv-x="460" 
d="M36 0v107h117v476h-117v107h388v-107h-117v-476h117v-107h-388zM193 746l-31 31v67l31 30h74l31 -30v-67l-31 -31h-74z" />
    <glyph glyph-name="Imacron" unicode="&#x12a;" horiz-adv-x="460" 
d="M36 0v107h117v476h-117v107h388v-107h-117v-476h117v-107h-388zM106 764v86h247v-86h-247z" />
    <glyph glyph-name="Iogonek" unicode="&#x12e;" horiz-adv-x="460" 
d="M36 0v107h117v476h-117v107h388v-107h-117v-476h117v-107h-148l-76 -76v-36l7 -6h69v-57h-125l-35 35v75l66 65h-146z" />
    <glyph glyph-name="Jcircumflex" unicode="&#x134;" horiz-adv-x="425" 
d="M143 744v50l78 78h131l77 -78v-50h-73l-66 66h-7l-66 -66h-74zM21 0v120h150l41 40v530h154v-588l-103 -102h-242z" />
    <glyph glyph-name="Kcommaaccent" unicode="&#x136;" horiz-adv-x="653" 
d="M301 -175v143h96v-103l-40 -40h-56zM461 0l-138 289l-106 -153v-136h-154v690h154v-362l234 362h172l-193 -283l202 -407h-171z" />
    <glyph glyph-name="Lacute" unicode="&#x139;" horiz-adv-x="506" 
d="M94 741v54l82 82h86v-54l-82 -82h-86zM64 0v690h154v-567h264v-123h-418z" />
    <glyph glyph-name="Lcaron" unicode="&#x13d;" horiz-adv-x="506" 
d="M294 580v143h96v-103l-40 -40h-56zM64 0v690h154v-567h264v-123h-418z" />
    <glyph glyph-name="Lcommaaccent" unicode="&#x13b;" horiz-adv-x="506" 
d="M224 -175v143h96v-103l-40 -40h-56zM64 0v690h154v-567h264v-123h-418z" />
    <glyph glyph-name="Nacute" unicode="&#x143;" horiz-adv-x="667" 
d="M271 741v54l82 82h86v-54l-82 -82h-86zM64 0v690h162l242 -459v459h137v-690h-164l-240 463v-463h-137z" />
    <glyph glyph-name="Ncaron" unicode="&#x147;" horiz-adv-x="667" 
d="M267 744l-78 78v50h74l66 -66h7l66 66h73v-50l-77 -78h-131zM64 0v690h162l242 -459v459h137v-690h-164l-240 463v-463h-137z" />
    <glyph glyph-name="Ncommaaccent" unicode="&#x145;" horiz-adv-x="667" 
d="M285 -175v143h96v-103l-40 -40h-56zM64 0v690h162l242 -459v459h137v-690h-164l-240 463v-463h-137z" />
    <glyph glyph-name="Ohungarumlaut" unicode="&#x150;" horiz-adv-x="661" 
d="M214 741v54l82 82h59v-54l-82 -82h-59zM360 741v54l82 82h59v-54l-82 -82h-59zM157 0l-102 102v486l102 102h347l102 -102v-486l-102 -102h-347zM249 115h163l40 40v380l-40 40h-163l-40 -40v-380z" />
    <glyph glyph-name="Omacron" unicode="&#x14c;" horiz-adv-x="661" 
d="M206 764v86h247v-86h-247zM157 0l-102 102v486l102 102h347l102 -102v-486l-102 -102h-347zM249 115h163l40 40v380l-40 40h-163l-40 -40v-380z" />
    <glyph glyph-name="Racute" unicode="&#x154;" horiz-adv-x="651" 
d="M260 741v54l82 82h86v-54l-82 -82h-86zM64 0v690h448l97 -96v-216l-86 -86l99 -292h-159l-87 270h-158v-270h-154zM218 379h201l36 36v133l-34 34h-203v-203z" />
    <glyph glyph-name="Rcaron" unicode="&#x158;" horiz-adv-x="651" 
d="M256 744l-78 78v50h74l66 -66h7l66 66h73v-50l-77 -78h-131zM64 0v690h448l97 -96v-216l-86 -86l99 -292h-159l-87 270h-158v-270h-154zM218 379h201l36 36v133l-34 34h-203v-203z" />
    <glyph glyph-name="Rcommaaccent" unicode="&#x156;" horiz-adv-x="651" 
d="M292 -175v143h96v-103l-40 -40h-56zM64 0v690h448l97 -96v-216l-86 -86l99 -292h-159l-87 270h-158v-270h-154zM218 379h201l36 36v133l-34 34h-203v-203z" />
    <glyph glyph-name="Sacute" unicode="&#x15a;" horiz-adv-x="629" 
d="M252 741v54l82 82h86v-54l-82 -82h-86zM139 0l-94 93v112h154v-63l29 -29h172l29 30v121l-22 23h-276l-83 82v225l97 96h343l93 -93v-111h-154v62l-29 29h-166l-30 -29v-117l22 -22h277l82 -83v-230l-96 -96h-348z" />
    <glyph glyph-name="Scedilla" unicode="&#x15e;" horiz-adv-x="629" 
d="M139 0l-94 93v112h154v-63l29 -29h172l29 30v121l-22 23h-276l-83 82v225l97 96h343l93 -93v-111h-154v62l-29 29h-166l-30 -29v-117l22 -22h277l82 -83v-230l-96 -96h-138v-37h53l35 -35v-68l-35 -35h-158v55h105l6 6v25l-6 5h-54l-21 21v63h-135z" />
    <glyph glyph-name="Scircumflex" unicode="&#x15c;" horiz-adv-x="629" 
d="M170 744v50l78 78h131l77 -78v-50h-73l-66 66h-7l-66 -66h-74zM139 0l-94 93v112h154v-63l29 -29h172l29 30v121l-22 23h-276l-83 82v225l97 96h343l93 -93v-111h-154v62l-29 29h-166l-30 -29v-117l22 -22h277l82 -83v-230l-96 -96h-348z" />
    <glyph glyph-name="Scommaaccent" unicode="&#x218;" horiz-adv-x="629" 
d="M266 -175v143h96v-103l-40 -40h-56zM139 0l-94 93v112h154v-63l29 -29h172l29 30v121l-22 23h-276l-83 82v225l97 96h343l93 -93v-111h-154v62l-29 29h-166l-30 -29v-117l22 -22h277l82 -83v-230l-96 -96h-348z" />
    <glyph glyph-name="Tcaron" unicode="&#x164;" horiz-adv-x="568" 
d="M218 744l-78 78v50h74l66 -66h7l66 66h73v-50l-77 -78h-131zM207 0v566h-188v124h530v-124h-188v-566h-154z" />
    <glyph glyph-name="Tcommaaccent" unicode="&#x162;" horiz-adv-x="568" 
d="M235 -175v143h96v-103l-40 -40h-56zM207 0v566h-188v124h530v-124h-188v-566h-154z" />
    <glyph glyph-name="Ubreve" unicode="&#x16c;" horiz-adv-x="654" 
d="M162 0l-103 102v588h154v-531l40 -40h148l40 40v531h154v-588l-103 -102h-330zM230 748l-45 45v71h93v-40l11 -11h76l11 11v40h92v-71l-46 -45h-192z" />
    <glyph glyph-name="Uhungarumlaut" unicode="&#x170;" horiz-adv-x="654" 
d="M162 0l-103 102v588h154v-531l40 -40h148l40 40v531h154v-588l-103 -102h-330zM211 741v54l82 82h59v-54l-82 -82h-59zM357 741v54l82 82h59v-54l-82 -82h-59z" />
    <glyph glyph-name="Umacron" unicode="&#x16a;" horiz-adv-x="654" 
d="M162 0l-103 102v588h154v-531l40 -40h148l40 40v531h154v-588l-103 -102h-330zM203 764v86h247v-86h-247z" />
    <glyph glyph-name="Uogonek" unicode="&#x172;" horiz-adv-x="654" 
d="M162 0l-103 102v588h154v-531l40 -40h148l40 40v531h154v-588l-103 -102h-106l-76 -76v-36l7 -6h69v-57h-125l-35 35v75l66 65h-130z" />
    <glyph glyph-name="Uring" unicode="&#x16e;" horiz-adv-x="654" 
d="M261 733l-38 38v85l38 38h131l38 -38v-85l-38 -38h-131zM295 777h62l12 11v50l-12 11h-62l-11 -11v-50zM162 0l-103 102v588h154v-531l40 -40h148l40 40v531h154v-588l-103 -102h-330z" />
    <glyph glyph-name="Zacute" unicode="&#x179;" horiz-adv-x="546" 
d="M211 741v54l82 82h86v-54l-82 -82h-86zM31 0v97l295 469h-288v124h472v-97l-295 -468h300v-125h-484z" />
    <glyph glyph-name="Zdotaccent" unicode="&#x17b;" horiz-adv-x="546" 
d="M31 0v97l295 469h-288v124h472v-97l-295 -468h300v-125h-484zM236 746l-31 31v67l31 30h74l31 -30v-67l-31 -31h-74z" />
    <glyph glyph-name="abreve" unicode="&#x103;" horiz-adv-x="576" 
d="M122 0l-83 83v136l83 83h254v84l-26 26h-128l-17 -17v-39h-151v67l81 81h295l93 -92v-412h-112l-8 71l-71 -71h-210zM209 95h120l47 48v80h-167l-22 -22v-84zM184 552l-45 45v71h93v-40l11 -11h76l11 11v40h92v-71l-46 -45h-192z" />
    <glyph glyph-name="amacron" unicode="&#x101;" horiz-adv-x="576" 
d="M122 0l-83 83v136l83 83h254v84l-26 26h-128l-17 -17v-39h-151v67l81 81h295l93 -92v-412h-112l-8 71l-71 -71h-210zM209 95h120l47 48v80h-167l-22 -22v-84zM157 568v86h247v-86h-247z" />
    <glyph glyph-name="aogonek" unicode="&#x105;" horiz-adv-x="576" 
d="M122 0l-83 83v136l83 83h254v84l-26 26h-129l-16 -17v-39h-151v67l81 81h295l93 -92v-412h-20l-76 -76v-36l7 -6h69v-56h-125l-34 34v75l67 67l-8 69l-71 -71h-210zM209 95h120l47 48v80h-167l-22 -22v-84z" />
    <glyph glyph-name="cacute" unicode="&#x107;" horiz-adv-x="556" 
d="M222 545v54l82 82h86v-54l-82 -82h-86zM140 0l-93 93v319l93 93h296l85 -87v-91h-150v56l-26 26h-120l-31 -31v-252l31 -31h120l26 27v56h150v-92l-86 -86h-295z" />
    <glyph glyph-name="ccaron" unicode="&#x10d;" horiz-adv-x="556" 
d="M218 548l-78 78v50h74l66 -66h7l66 66h73v-50l-77 -78h-131zM140 0l-93 93v319l93 93h296l85 -87v-91h-150v56l-26 26h-120l-31 -31v-252l31 -31h120l26 27v56h150v-92l-86 -86h-295z" />
    <glyph glyph-name="ccircumflex" unicode="&#x109;" horiz-adv-x="556" 
d="M140 548v50l78 78h131l77 -78v-50h-73l-66 66h-7l-66 -66h-74zM140 0l-93 93v319l93 93h296l85 -87v-91h-150v56l-26 26h-120l-31 -31v-252l31 -31h120l26 27v56h150v-92l-86 -86h-295z" />
    <glyph glyph-name="dcaron" unicode="&#x10f;" horiz-adv-x="596" 
d="M584 546v143h96v-103l-40 -40h-56zM141 0l-92 93v319l92 92h187l63 -63v249h148v-690h-112l-8 72l-72 -72h-206zM227 96h109l55 56v189l-64 65h-100l-31 -32v-246z" />
    <glyph glyph-name="ecaron" unicode="&#x11b;" horiz-adv-x="571" 
d="M220 548l-78 78v50h74l66 -66h7l66 66h73v-50l-77 -78h-131zM139 0l-92 93v319l92 93h294l93 -93v-193h-336v-97l29 -28h144l17 17v42h146v-74l-79 -79h-308zM190 303h194v82l-27 27h-140l-27 -27v-82z" />
    <glyph glyph-name="edotaccent" unicode="&#x117;" horiz-adv-x="571" 
d="M139 0l-92 93v319l92 93h294l93 -93v-193h-336v-97l29 -28h144l17 17v42h146v-74l-79 -79h-308zM190 303h194v82l-27 27h-140l-27 -27v-82zM249 550l-31 31v67l31 30h74l31 -30v-67l-31 -31h-74z" />
    <glyph glyph-name="emacron" unicode="&#x113;" horiz-adv-x="571" 
d="M139 0l-92 93v319l92 93h294l93 -93v-193h-336v-97l29 -28h144l17 17v42h146v-74l-79 -79h-308zM190 303h194v82l-27 27h-140l-27 -27v-82zM163 568v86h247v-86h-247z" />
    <glyph glyph-name="eogonek" unicode="&#x119;" horiz-adv-x="571" 
d="M139 0l-92 93v319l92 93h294l93 -93v-193h-336v-97l29 -28h144l17 17v42h146v-74l-79 -79h-1l-76 -76v-36l7 -6h69v-57h-125l-35 35v75l66 65h-213zM190 303h194v82l-27 27h-140l-27 -27v-82z" />
    <glyph glyph-name="gbreve" unicode="&#x11f;" horiz-adv-x="594" 
d="M138 -175l-81 81v63h138v-32l18 -18h147l31 32v132l-62 -62h-188l-92 92v299l92 92h204l74 -73l8 73h112v-586l-93 -93h-308zM227 117h103l61 61v173l-57 57h-107l-31 -31v-229zM193 552l-45 45v71h93v-40l11 -11h76l11 11v40h92v-71l-46 -45h-192z" />
    <glyph glyph-name="gcircumflex" unicode="&#x11d;" horiz-adv-x="594" 
d="M146 548v50l78 78h131l77 -78v-50h-73l-66 66h-7l-66 -66h-74zM138 -175l-81 81v63h138v-32l18 -18h147l31 32v132l-62 -62h-188l-92 92v299l92 92h204l74 -73l8 73h112v-586l-93 -93h-308zM227 117h103l61 61v173l-57 57h-107l-31 -31v-229z" />
    <glyph glyph-name="gcommaaccent" unicode="&#x123;" horiz-adv-x="594" 
d="M333 687v-143h-96v103l40 40h56zM138 -175l-81 81v63h138v-32l18 -18h147l31 32v132l-62 -62h-188l-92 92v299l92 92h204l74 -73l8 73h112v-586l-93 -93h-308zM227 117h103l61 61v173l-57 57h-107l-31 -31v-229z" />
    <glyph glyph-name="hcircumflex" unicode="&#x125;" horiz-adv-x="583" 
d="M-12 719v50l78 78h131l77 -78v-50h-73l-66 66h-7l-66 -66h-74zM57 0v690h147v-249l64 63h169l92 -92v-412h-147v363l-31 31h-88l-59 -58v-336h-147z" />
    <glyph glyph-name="imacron" unicode="&#x12b;" horiz-adv-x="273" 
d="M210 0h-147v504h147v-504zM14 568v86h247v-86h-247z" />
    <glyph glyph-name="iogonek" unicode="&#x12f;" horiz-adv-x="273" 
d="M210 0h-52l-76 -76v-36l6 -6h70v-56h-126l-34 34v75l65 65v504h147v-504zM63 564v121h147v-121h-147z" />
    <glyph glyph-name="jcircumflex" unicode="&#x135;" horiz-adv-x="272" 
d="M-8 548v50l78 78h131l77 -78v-50h-73l-66 66h-7l-66 -66h-74zM-53 -175v106h96l19 19v554h147v-592l-87 -87h-175z" />
    <glyph glyph-name="kcommaaccent" unicode="&#x137;" horiz-adv-x="578" 
d="M261 -175v143h96v-103l-40 -40h-56zM397 0l-105 219l-89 -113v-106h-147v690h147v-426l178 240h164l-149 -189l164 -315h-163z" />
    <glyph glyph-name="lacute" unicode="&#x13a;" horiz-adv-x="273" 
d="M87 725v54l82 82h86v-54l-82 -82h-86zM210 0h-147v690h147v-690z" />
    <glyph glyph-name="lcaron" unicode="&#x13e;" horiz-adv-x="273" 
d="M255 546v143h96v-103l-40 -40h-56zM210 0h-147v690h147v-690z" />
    <glyph glyph-name="lcommaaccent" unicode="&#x13c;" horiz-adv-x="273" 
d="M88 -175v143h96v-103l-40 -40h-56zM210 0h-147v690h147v-690z" />
    <glyph glyph-name="nacute" unicode="&#x144;" horiz-adv-x="583" 
d="M240 545v54l82 82h86v-54l-82 -82h-86zM57 0v504h112l8 -75l76 75h184l92 -92v-412h-147v363l-31 31h-88l-59 -59v-335h-147z" />
    <glyph glyph-name="ncaron" unicode="&#x148;" horiz-adv-x="583" 
d="M236 548l-78 78v50h74l66 -66h7l66 66h73v-50l-77 -78h-131zM57 0v504h112l8 -75l76 75h184l92 -92v-412h-147v363l-31 31h-88l-59 -59v-335h-147z" />
    <glyph glyph-name="ncommaaccent" unicode="&#x146;" horiz-adv-x="583" 
d="M247 -175v143h96v-103l-40 -40h-56zM57 0v504h112l8 -75l76 75h184l92 -92v-412h-147v363l-31 31h-88l-59 -59v-335h-147z" />
    <glyph glyph-name="ohungarumlaut" unicode="&#x151;" horiz-adv-x="585" 
d="M176 545v54l82 82h59v-54l-82 -82h-59zM322 545v54l82 82h59v-54l-82 -82h-59zM141 0l-92 93v319l92 92h303l93 -92v-319l-93 -93h-303zM227 94h131l32 32v253l-32 32h-131l-31 -32v-253z" />
    <glyph glyph-name="omacron" unicode="&#x14d;" horiz-adv-x="585" 
d="M169 568v86h247v-86h-247zM141 0l-92 93v319l92 92h303l93 -92v-319l-93 -93h-303zM227 94h131l32 32v253l-32 32h-131l-31 -32v-253z" />
    <glyph glyph-name="racute" unicode="&#x155;" horiz-adv-x="401" 
d="M154 545v54l82 82h86v-54l-82 -82h-86zM57 0v504h112l8 -77l77 77h122v-122h-114l-58 -58v-324h-147z" />
    <glyph glyph-name="rcaron" unicode="&#x159;" horiz-adv-x="401" 
d="M150 548l-78 78v50h74l66 -66h7l66 66h73v-50l-77 -78h-131zM57 0v504h112l8 -77l77 77h122v-122h-114l-58 -58v-324h-147z" />
    <glyph glyph-name="rcommaaccent" unicode="&#x157;" horiz-adv-x="401" 
d="M82 -175v143h96v-103l-40 -40h-56zM57 0v504h112l8 -77l77 77h122v-122h-114l-58 -58v-324h-147z" />
    <glyph glyph-name="sacute" unicode="&#x15b;" horiz-adv-x="551" 
d="M216 545v54l82 82h86v-54l-82 -82h-86zM118 0l-79 79v67h142v-37l16 -16h150l18 18v79l-13 13h-241l-68 68v148l85 86h300l78 -79v-66h-142v36l-16 16h-140l-18 -18v-79l13 -12h241l68 -68v-150l-85 -85h-309z" />
    <glyph glyph-name="scedilla" unicode="&#x15f;" horiz-adv-x="551" 
d="M118 0l-79 79v67h142v-37l16 -16h150l18 18v79l-13 13h-241l-68 68v148l85 86h300l78 -79v-66h-142v36l-16 16h-140l-18 -18v-79l13 -12h241l68 -68v-150l-85 -85h-114v-37h53l35 -35v-68l-35 -35h-158v55h105l6 6v25l-6 5h-54l-21 21v63h-120z" />
    <glyph glyph-name="scircumflex" unicode="&#x15d;" horiz-adv-x="551" 
d="M134 548v50l78 78h131l77 -78v-50h-73l-66 66h-7l-66 -66h-74zM118 0l-79 79v67h142v-37l16 -16h150l18 18v79l-13 13h-241l-68 68v148l85 86h300l78 -79v-66h-142v36l-16 16h-140l-18 -18v-79l13 -12h241l68 -68v-150l-85 -85h-309z" />
    <glyph glyph-name="scommaaccent" unicode="&#x219;" horiz-adv-x="551" 
d="M229 -175v143h96v-103l-40 -40h-56zM118 0l-79 79v67h142v-37l16 -16h150l18 18v79l-13 13h-241l-68 68v148l85 86h300l78 -79v-66h-142v36l-16 16h-140l-18 -18v-79l13 -12h241l68 -68v-150l-85 -85h-309z" />
    <glyph glyph-name="tcaron" unicode="&#x165;" horiz-adv-x="428" 
d="M297 566v143h96v-103l-40 -40h-56zM183 0l-93 93v307h-73v104h73v134h147v-134h155v-104h-155v-261l29 -29h126v-110h-209z" />
    <glyph glyph-name="tcommaaccent" unicode="&#x163;" horiz-adv-x="428" 
d="M200 -175v143h96v-103l-40 -40h-56zM183 0l-93 93v307h-73v104h73v134h147v-134h155v-104h-155v-261l29 -29h126v-110h-209z" />
    <glyph glyph-name="ubreve" unicode="&#x16d;" horiz-adv-x="583" 
d="M146 0l-92 93v411h147v-363l31 -31h87l60 60v334h147v-504h-112l-8 76l-76 -76h-184zM193 552l-45 45v71h93v-40l11 -11h76l11 11v40h92v-71l-46 -45h-192z" />
    <glyph glyph-name="uhungarumlaut" unicode="&#x171;" horiz-adv-x="583" 
d="M146 0l-92 93v411h147v-363l31 -31h87l60 60v334h147v-504h-112l-8 76l-76 -76h-184zM173 545v54l82 82h59v-54l-82 -82h-59zM319 545v54l82 82h59v-54l-82 -82h-59z" />
    <glyph glyph-name="umacron" unicode="&#x16b;" horiz-adv-x="583" 
d="M146 0l-92 93v411h147v-363l31 -31h87l60 60v334h147v-504h-112l-8 76l-76 -76h-184zM166 568v86h247v-86h-247z" />
    <glyph glyph-name="uogonek" unicode="&#x173;" horiz-adv-x="583" 
d="M146 0l-92 93v411h147v-363l31 -31h87l60 60v334h147v-504h-20l-76 -76v-36l7 -6h69v-56h-125l-34 34v75l67 67l-8 74l-76 -76h-184z" />
    <glyph glyph-name="uring" unicode="&#x16f;" horiz-adv-x="583" 
d="M224 537l-38 38v85l38 38h131l38 -38v-85l-38 -38h-131zM258 581h62l12 11v50l-12 11h-62l-11 -11v-50zM146 0l-92 93v411h147v-363l31 -31h87l60 60v334h147v-504h-112l-8 76l-76 -76h-184z" />
    <glyph glyph-name="zacute" unicode="&#x17a;" horiz-adv-x="478" 
d="M177 545v54l82 82h86v-54l-82 -82h-86zM26 0v83l243 315h-237v106h414v-82l-242 -315h248v-107h-426z" />
    <glyph glyph-name="zdotaccent" unicode="&#x17c;" horiz-adv-x="478" 
d="M26 0v83l243 315h-237v106h414v-82l-242 -315h248v-107h-426zM201 550l-31 31v67l31 30h74l31 -30v-67l-31 -31h-74z" />
    <glyph glyph-name="published" horiz-adv-x="822" 
d="M171 0l-116 117v456l116 117h479l117 -117v-456l-117 -117h-479zM221 84h379l63 64v394l-63 64h-379l-64 -64v-394zM235 152v387h302l56 -56v-167l-57 -58h-186v-106h-115zM350 339h114l15 15v91l-15 15h-114v-121z" />
    <glyph glyph-name="servicemark" unicode="&#x2120;" horiz-adv-x="627" 
d="M63 401l-42 42v44h64v-27l10 -10h71l10 10v54l-5 5h-113l-37 37v91l44 43h133l42 -42v-45h-64v28l-10 10h-70l-11 -10v-54l6 -5h113l36 -37v-91l-43 -43h-134zM278 401v289h93l58 -229l59 229h93v-289h-58v246l-63 -246h-66l-63 245v-245h-53z" />
    <glyph glyph-name="G.alt" horiz-adv-x="657" 
d="M157 0l-102 102v486l102 102h351l95 -95v-113h-154v64l-29 29h-171l-40 -40v-384l40 -40h168l34 34v118h-149v114h303v-377h-114l-12 63l-63 -63h-259z" />
    <glyph glyph-name="Gbreve.alt" horiz-adv-x="657" 
d="M157 0l-102 102v486l102 102h351l95 -95v-113h-154v64l-29 29h-171l-40 -40v-384l40 -40h168l34 34v118h-149v114h303v-377h-114l-12 63l-63 -63h-259zM233 748l-45 45v71h93v-40l11 -11h76l11 11v40h92v-71l-46 -45h-192z" />
    <glyph glyph-name="Gcircumflex.alt" horiz-adv-x="657" 
d="M185 744v50l78 78h131l77 -78v-50h-73l-66 66h-7l-66 -66h-74zM157 0l-102 102v486l102 102h351l95 -95v-113h-154v64l-29 29h-171l-40 -40v-384l40 -40h168l34 34v118h-149v114h303v-377h-114l-12 63l-63 -63h-259z" />
    <glyph glyph-name="Gcommaaccent.alt" horiz-adv-x="657" 
d="M281 -175v143h96v-103l-40 -40h-56zM157 0l-102 102v486l102 102h351l95 -95v-113h-154v64l-29 29h-171l-40 -40v-384l40 -40h168l34 34v118h-149v114h303v-377h-114l-12 63l-63 -63h-259z" />
    <glyph glyph-name="I.alt" horiz-adv-x="310" 
d="M233 0h-156v690h156v-690z" />
    <glyph glyph-name="Iacute.alt" horiz-adv-x="310" 
d="M93 741v54l82 82h86v-54l-82 -82h-86zM233 0h-156v690h156v-690z" />
    <glyph glyph-name="Igrave.alt" horiz-adv-x="310" 
d="M233 0h-156v690h156v-690zM131 741l-82 82v54h86l82 -82v-54h-86z" />
    <glyph glyph-name="Icircumflex.alt" horiz-adv-x="310" 
d="M12 744v50l78 78h131l77 -78v-50h-73l-66 66h-7l-66 -66h-74zM233 0h-156v690h156v-690z" />
    <glyph glyph-name="Idieresis.alt" horiz-adv-x="310" 
d="M191 757v103h108v-103h-108zM12 757v103h109v-103h-109zM233 0h-156v690h156v-690z" />
    <glyph glyph-name="Idotaccent.alt" horiz-adv-x="310" 
d="M233 0h-156v690h156v-690zM118 746l-31 31v67l31 30h74l31 -30v-67l-31 -31h-74z" />
    <glyph glyph-name="Imacron.alt" horiz-adv-x="310" 
d="M233 0h-156v690h156v-690zM32 764v86h247v-86h-247z" />
    <glyph glyph-name="Iogonek.alt" horiz-adv-x="310" 
d="M233 0h-61l-76 -76v-36l6 -6h70v-56h-126l-34 34v75l65 65v690h156v-690z" />
    <glyph glyph-name="J.alt" horiz-adv-x="596" 
d="M132 0l-102 102v190h154v-133l40 -40h119l40 40v531h154v-588l-103 -102h-302z" />
    <glyph glyph-name="Jcircumflex.alt" horiz-adv-x="596" 
d="M316 744v50l78 78h131l77 -78v-50h-73l-66 66h-7l-66 -66h-74zM132 0l-102 102v190h154v-133l40 -40h119l40 40v531h154v-588l-103 -102h-302z" />
    <glyph glyph-name="Q.alt" horiz-adv-x="661" 
d="M157 0l-102 103v485l102 102h347l103 -102v-485l-63 -63l79 -78l-85 -85l-122 123h-259zM249 115h164l40 41v379l-40 40h-164l-40 -40v-379z" />
    <glyph glyph-name="a.alt" horiz-adv-x="596" 
d="M141 0l-92 93v319l92 92h206l73 -72l6 72h113v-504h-112l-7 72l-73 -72h-206zM227 96h109l56 56v200l-56 56h-109l-31 -31v-249z" />
    <glyph glyph-name="aacute.alt" horiz-adv-x="596" 
d="M224 545v54l82 82h86v-54l-82 -82h-86zM141 0l-92 93v319l92 92h206l73 -72l6 72h113v-504h-112l-7 72l-73 -72h-206zM227 96h109l56 56v200l-56 56h-109l-31 -31v-249z" />
    <glyph glyph-name="agrave.alt" horiz-adv-x="596" 
d="M141 0l-92 93v319l92 92h206l73 -72l6 72h113v-504h-112l-7 72l-73 -72h-206zM227 96h109l56 56v200l-56 56h-109l-31 -31v-249zM261 545l-82 82v54h86l82 -82v-54h-86z" />
    <glyph glyph-name="acircumflex.alt" horiz-adv-x="596" 
d="M142 548v50l78 78h131l77 -78v-50h-73l-66 66h-7l-66 -66h-74zM141 0l-92 93v319l92 92h206l73 -72l6 72h113v-504h-112l-7 72l-73 -72h-206zM227 96h109l56 56v200l-56 56h-109l-31 -31v-249z" />
    <glyph glyph-name="adieresis.alt" horiz-adv-x="596" 
d="M321 561v103h108v-103h-108zM142 561v103h109v-103h-109zM141 0l-92 93v319l92 92h206l73 -72l6 72h113v-504h-112l-7 72l-73 -72h-206zM227 96h109l56 56v200l-56 56h-109l-31 -31v-249z" />
    <glyph glyph-name="atilde.alt" horiz-adv-x="596" 
d="M141 0l-92 93v319l92 92h206l73 -72l6 72h113v-504h-112l-7 72l-73 -72h-206zM227 96h109l56 56v200l-56 56h-109l-31 -31v-249zM138 551v76l44 44h96l53 -52h16l8 9v43h80v-76l-45 -44h-96l-53 53h-15l-9 -9v-44h-79z" />
    <glyph glyph-name="aring.alt" horiz-adv-x="596" 
d="M220 537l-38 38v85l38 38h131l38 -38v-85l-38 -38h-131zM254 581h62l12 11v50l-12 11h-62l-11 -11v-50zM141 0l-92 93v319l92 92h206l73 -72l6 72h113v-504h-112l-7 72l-73 -72h-206zM227 96h109l56 56v200l-56 56h-109l-31 -31v-249z" />
    <glyph glyph-name="abreve.alt" horiz-adv-x="596" 
d="M141 0l-92 93v319l92 92h206l73 -72l6 72h113v-504h-112l-7 72l-73 -72h-206zM227 96h109l56 56v200l-56 56h-109l-31 -31v-249zM189 552l-45 45v71h93v-40l11 -11h76l11 11v40h92v-71l-46 -45h-192z" />
    <glyph glyph-name="amacron.alt" horiz-adv-x="596" 
d="M141 0l-92 93v319l92 92h206l73 -72l6 72h113v-504h-112l-7 72l-73 -72h-206zM227 96h109l56 56v200l-56 56h-109l-31 -31v-249zM162 568v86h247v-86h-247z" />
    <glyph glyph-name="aogonek.alt" horiz-adv-x="596" 
d="M141 0l-92 93v319l92 92h206l73 -72l6 72h113v-504h-19l-76 -76v-36l6 -6h70v-56h-126l-34 34v75l67 67l-7 70l-73 -72h-206zM227 96h109l56 56v200l-56 56h-109l-31 -31v-249z" />
    <glyph glyph-name="g.alt" horiz-adv-x="571" 
d="M112 -175l-80 80v94l66 66l-34 34v45l42 42l-60 60v183l75 75h432v-88h-78l47 -47v-118l-81 -80h-237l-10 -10v-43l9 -9h267l80 -80v-124l-80 -80h-358zM208 257h152l20 21v115l-20 20h-152l-20 -20v-115zM193 -85h197l21 21v58l-21 20h-197l-20 -20v-58z" />
    <glyph glyph-name="gbreve.alt" horiz-adv-x="571" 
d="M112 -175l-80 80v94l66 66l-34 34v45l42 42l-60 60v183l75 75h432v-88h-78l47 -47v-118l-81 -80h-237l-10 -10v-43l9 -9h267l80 -80v-124l-80 -80h-358zM208 257h152l20 21v115l-20 20h-152l-20 -20v-115zM193 -85h197l21 21v58l-21 20h-197l-20 -20v-58zM195 552l-45 45
v71h93v-40l11 -11h76l11 11v40h92v-71l-46 -45h-192z" />
    <glyph glyph-name="gcircumflex.alt" horiz-adv-x="571" 
d="M148 548v50l78 78h131l77 -78v-50h-73l-66 66h-7l-66 -66h-74zM112 -175l-80 80v94l66 66l-34 34v45l42 42l-60 60v183l75 75h432v-88h-78l47 -47v-118l-81 -80h-237l-10 -10v-43l9 -9h267l80 -80v-124l-80 -80h-358zM208 257h152l20 21v115l-20 20h-152l-20 -20v-115z
M193 -85h197l21 21v58l-21 20h-197l-20 -20v-58z" />
    <glyph glyph-name="gcommaaccent.alt" horiz-adv-x="571" 
d="M340 687v-143h-96v103l40 40h56zM112 -175l-80 80v94l66 66l-34 34v45l42 42l-60 60v183l75 75h432v-88h-78l47 -47v-118l-81 -80h-237l-10 -10v-43l9 -9h267l80 -80v-124l-80 -80h-358zM208 257h152l20 21v115l-20 20h-152l-20 -20v-115zM193 -85h197l21 21v58l-21 20
h-197l-20 -20v-58z" />
    <glyph glyph-name="at.alt1" horiz-adv-x="1020" 
d="M59 0v554l136 136h634l136 -136v-463l-91 -91h-233l-8 71l-71 -71h-222l-82 82v152l80 80h263v85l-29 29h-126l-20 -20v-44h-156v86l80 80h311l91 -91v-341h46l28 28v385l-76 77h-475l-76 -77v-511h-140zM433 100h121l47 46v80h-168l-24 -24v-78z" />
    <glyph glyph-name="at.alt2" horiz-adv-x="980" 
d="M188 -156l-135 135v550l135 135h606l135 -135v-439l-90 -90h-222l-8 72l-71 -72h-209l-93 93v319l93 92h209l71 -72l7 72h113v-415h45l28 28v373l-75 75h-471l-75 -75v-471l75 -75h477v-100h-545zM415 96h111l56 56v200l-56 56h-111l-32 -31v-249z" />
    <glyph glyph-name="at.alt3" horiz-adv-x="1032" 
d="M59 0v554l136 136h647l136 -136v-463l-91 -91h-234l-8 71l-72 -71h-218l-91 91v348l91 91h218l72 -71l8 71h110v-432h48l28 28v385l-76 77h-488l-76 -77v-511h-140zM450 101h107l55 55v219l-55 55h-107l-34 -35v-260z" />
    <glyph glyph-name="ampersand.alt" horiz-adv-x="650" 
d="M142 0l-92 92v205l72 72l-71 72v157l92 92h343l94 -93v-98h-154v52l-29 29h-162l-30 -30v-82l20 -21l229 -117v77h153v-319l-88 -88h-377zM234 110h194l26 25v48l-222 111l-28 -29v-125z" />
    <glyph glyph-name="ordfeminine.alt" horiz-adv-x="383" 
d="M91 343l-62 62v223l62 62h133l46 -46l7 46h77v-347h-77l-7 46l-46 -46h-133zM151 415h72l30 29v145l-30 30h-72l-21 -21v-162z" />
    <glyph glyph-name="zero.tabular" 
d="M152 0l-103 102v486l103 102h313l103 -102v-486l-103 -102h-313zM231 110h153l38 38v394l-38 38h-153l-38 -38v-394z" />
    <glyph glyph-name="one.tabular" 
d="M90 0v107h156v476h-156v107h303v-583h152v-107h-455z" />
    <glyph glyph-name="two.tabular" 
d="M62 0v300l83 82h251l20 20v154l-25 25h-157l-24 -24v-72h-146v112l93 93h308l97 -96v-243l-83 -82h-251l-20 -20v-134h353v-115h-499z" />
    <glyph glyph-name="three.tabular" 
d="M140 0l-93 93v120h145v-79l28 -28h176l27 28v130l-33 34h-229v109h229l32 32v116l-28 28h-174l-28 -28v-76h-145v118l93 93h336l92 -92v-174l-71 -70l72 -73v-189l-92 -92h-337z" />
    <glyph glyph-name="four.tabular" 
d="M384 0v177h-350v87l114 426h138l-96 -398h194v398h146v-398h57v-115h-57v-177h-146z" />
    <glyph glyph-name="five.tabular" 
d="M152 0l-93 93v114h146v-72l27 -27h160l29 30v183l-22 22h-159l-43 -43h-138v390h497v-113h-351v-171l46 46h228l87 -87v-269l-96 -96h-318z" />
    <glyph glyph-name="six.tabular" 
d="M150 0l-98 98v494l98 98h324l94 -93v-104h-146v62l-27 27h-162l-35 -35v-167l49 50h229l92 -92v-240l-98 -98h-320zM229 108h162l32 32v154l-29 28h-164l-32 -33v-149z" />
    <glyph glyph-name="seven.tabular" 
d="M214 0v254l182 317h-348v119h520v-97l-209 -353v-240h-145z" />
    <glyph glyph-name="eight.tabular" 
d="M138 0l-92 92v187l75 75l-74 74v170l92 92h339l92 -92v-170l-74 -74l75 -75v-187l-92 -92h-341zM222 104h173l30 31v132l-35 35h-164l-35 -35v-132zM227 405h164l33 34v117l-30 30h-171l-30 -30v-117z" />
    <glyph glyph-name="nine.tabular" 
d="M143 0l-94 93v110h145v-68l28 -27h162l35 35v175l-50 -50h-228l-92 92v232l98 98h320l98 -98v-494l-98 -98h-324zM222 376h164l33 33v141l-31 32h-162l-32 -32v-146z" />
    <glyph glyph-name="plus.tabular" 
d="M97 288v113h153v146h118v-146h152v-113h-152v-147h-118v147h-153z" />
    <glyph glyph-name="minus.tabular" 
d="M126 284v121h365v-121h-365z" />
    <glyph glyph-name="multiply.tabular" 
d="M188 143l-81 80l120 120l-120 121l81 81l120 -121l121 121l80 -81l-121 -121l121 -120l-80 -80l-121 120z" />
    <glyph glyph-name="divide.tabular" 
d="M252 126v108h113v-108h-113zM105 286v115h407v-115h-407zM252 454v109h113v-109h-113z" />
    <glyph glyph-name="equal.tabular" 
d="M123 382v113h370v-113h-370zM123 189v113h370v-113h-370z" />
    <glyph glyph-name="greater.tabular" 
d="M524 276l-410 -164v128l292 105l-292 105v129l410 -164v-139z" />
    <glyph glyph-name="less.tabular" 
d="M503 112l-410 164v139l410 164v-129l-292 -105l292 -105v-128z" />
    <glyph glyph-name="numbersign.tabular" 
d="M139 153v108h-83v92h83v138h-83v93h83v106h109v-106h120v106h109v-106h84v-93h-84v-138h84v-92h-84v-108h-109v108h-120v-108h-109zM248 353h120v138h-120v-138z" />
    <glyph glyph-name="dollar.tabular" 
d="M144 19l-91 91v102h146v-60l25 -25h167l27 27v113l-22 22h-257l-83 83v205l94 94h90v101h137v-101h94l91 -91v-102h-146v60l-25 25h-162l-27 -27v-107l22 -23h257l83 -82v-211l-95 -94h-92v-101h-137v101h-96z" />
    <glyph glyph-name="cent.tabular" 
d="M153 69l-100 100v353l100 100h92v91h138v-91h92l98 -99v-115h-146v71l-32 32h-163l-34 -33v-267l34 -34h163l32 32v75h146v-117l-98 -98h-92v-92h-138v92h-92z" />
    <glyph glyph-name="sterling.tabular" 
d="M49 0v109l47 47v126h-49v109h49v197l102 102h276l101 -101v-126h-146v84l-33 33h-118l-36 -37v-152h186v-109h-186v-124l-41 -41h374v-117h-526z" />
    <glyph glyph-name="yen.tabular" 
d="M68 226v78h128l-163 386h160l121 -324l127 324h143l-165 -386h130v-78h-163l-5 -13v-29h168v-78h-168v-106h-146v106h-167v78h167v29l-6 13h-161z" />
    <glyph glyph-name="florin.tabular" 
d="M75 0v113h99l35 36v172h-130v114h130v153l103 102h231v-113h-151l-37 -36v-106h175v-114h-175v-219l-102 -102h-178z" />
    <glyph glyph-name="Euro.tabular" 
d="M28 372v79h45v137l102 102h303l100 -100v-123h-145v78l-34 35h-150l-30 -30v-99h173v-79h-173v-47h173v-79h-173v-108l30 -30h150l34 35v82h145v-125l-100 -100h-303l-102 102v144h-45v79h45v47h-45z" />
    <glyph glyph-name="section.tabular" 
d="M145 -118l-92 93v114h146v-72l26 -26h166l27 27v136h-309l-52 52v47h507v-275l-96 -96h-323zM56 320v274l97 96h318l91 -91v-114h-146v70l-26 27h-161l-27 -27v-136h309l53 -53v-46h-508z" />
    <glyph glyph-name="space.tabular" horiz-adv-x="308" 
 />
    <glyph glyph-name="colon.tabular" horiz-adv-x="308" 
d="M82 0v154h145v-154h-145zM82 289v153h145v-153h-145z" />
    <glyph glyph-name="semicolon.tabular" horiz-adv-x="308" 
d="M82 -117v60h55l7 7v50h-62v154h145v-218l-53 -53h-92zM82 288v154h145v-154h-145z" />
    <glyph glyph-name="comma.tabular" horiz-adv-x="308" 
d="M81 -117v60h56l6 7v50h-62v154h146v-218l-53 -53h-93z" />
    <glyph glyph-name="period.tabular" horiz-adv-x="308" 
d="M82 0v154h145v-154h-145z" />
    <glyph glyph-name="parenleft.tabular" horiz-adv-x="322" 
d="M160 -68l-98 97v631l98 97h132v-110h-51l-35 -36v-533l35 -36h51v-110h-132z" />
    <glyph glyph-name="parenright.tabular" horiz-adv-x="322" 
d="M260 29l-97 -97h-133v110h51l35 36v533l-35 36h-51v110h133l97 -97v-631z" />
    <glyph glyph-name="bracketleft.tabular" horiz-adv-x="322" 
d="M65 -68v825h230v-110h-86v-605h86v-110h-230z" />
    <glyph glyph-name="bracketright.tabular" horiz-adv-x="322" 
d="M257 757v-825h-230v110h86v605h-86v110h230z" />
    <glyph glyph-name="braceleft.tabular" horiz-adv-x="322" 
d="M170 -68l-98 97v244l-18 18h-51v122h50l19 19v228l98 97h134v-110h-52l-36 -36v-200l-58 -58l58 -58v-217l36 -36h52v-110h-134z" />
    <glyph glyph-name="braceright.tabular" horiz-adv-x="322" 
d="M250 29l-98 -97h-134v110h52l36 36v217l58 58l-58 58v200l-36 36h-52v110h134l98 -97v-228l19 -19h50v-122h-51l-18 -18v-244z" />
    <glyph glyph-name="zero.numerator" horiz-adv-x="410" 
d="M95 322l-60 59v250l60 59h220l59 -59v-250l-59 -59h-220zM163 401h84l21 21v168l-21 21h-84l-21 -21v-168z" />
    <glyph glyph-name="one.numerator" horiz-adv-x="331" 
d="M26 322v83h92v202h-90v83h197v-285h90v-83h-289z" />
    <glyph glyph-name="two.numerator" horiz-adv-x="397" 
d="M33 322v158l52 52h163l10 11v56l-13 14h-90l-14 -14v-28h-107v61l58 58h215l58 -58v-122l-52 -53h-162l-11 -11v-44h225v-80h-332z" />
    <glyph glyph-name="three.numerator" horiz-adv-x="398" 
d="M84 322l-58 58v56h107v-25l14 -14h98l15 15v48l-12 12h-145v72h144l12 12v45l-14 15h-97l-14 -14v-25h-107v55l58 58h222l59 -58v-81l-42 -42l42 -43v-86l-58 -58h-224z" />
    <glyph glyph-name="four.numerator" horiz-adv-x="404" 
d="M241 322v84h-226v61l77 223h101l-63 -204h111v204h106v-204h37v-80h-37v-84h-106z" />
    <glyph glyph-name="five.numerator" horiz-adv-x="404" 
d="M94 322l-58 58v60h108v-30l14 -14h91l14 14v72l-14 13h-88l-19 -20h-105v215h324v-77h-217v-75l27 27h144l55 -55v-129l-58 -59h-218z" />
    <glyph glyph-name="six.numerator" horiz-adv-x="409" 
d="M94 322l-59 59v250l60 59h221l58 -58v-50h-105v21l-15 15h-92l-19 -19v-76l28 28h153l52 -51v-119l-59 -59h-223zM159 395h94l16 16v62l-15 16h-94l-17 -18v-60z" />
    <glyph glyph-name="seven.numerator" horiz-adv-x="358" 
d="M113 322v133l102 148h-203v87h334v-66l-126 -181v-121h-107z" />
    <glyph glyph-name="eight.numerator" horiz-adv-x="412" 
d="M91 322l-58 58v86l43 44l-42 43v79l58 58h228l59 -58v-79l-43 -43l43 -44v-86l-58 -58h-230zM155 393h102l16 15v55l-13 13h-108l-13 -13v-55zM153 542h106l13 13v50l-15 15h-102l-15 -15v-50z" />
    <glyph glyph-name="nine.numerator" horiz-adv-x="408" 
d="M92 322l-57 58v54h105v-24l15 -15h92l19 19v77l-27 -28h-155l-51 52v117l58 58h224l58 -58v-251l-59 -59h-222zM155 526h93l18 18v57l-17 16h-93l-17 -16v-59z" />
    <glyph glyph-name="zero.denominator" horiz-adv-x="410" 
d="M95 0l-60 59v250l60 59h220l59 -59v-250l-59 -59h-220zM163 79h84l21 21v168l-21 21h-84l-21 -21v-168z" />
    <glyph glyph-name="one.denominator" horiz-adv-x="331" 
d="M26 0v83h92v202h-90v83h197v-285h90v-83h-289z" />
    <glyph glyph-name="two.denominator" horiz-adv-x="397" 
d="M33 0v158l52 52h163l10 11v56l-13 14h-90l-14 -14v-28h-107v61l58 58h215l58 -58v-122l-52 -53h-162l-11 -11v-44h225v-80h-332z" />
    <glyph glyph-name="three.denominator" horiz-adv-x="398" 
d="M84 0l-58 58v56h107v-25l14 -14h98l15 15v48l-12 12h-145v72h144l12 12v45l-14 15h-97l-14 -14v-25h-107v55l58 58h222l59 -58v-81l-42 -42l42 -43v-86l-58 -58h-224z" />
    <glyph glyph-name="four.denominator" horiz-adv-x="404" 
d="M241 0v84h-226v61l77 223h101l-63 -204h111v204h106v-204h37v-80h-37v-84h-106z" />
    <glyph glyph-name="five.denominator" horiz-adv-x="404" 
d="M94 0l-58 58v60h108v-30l14 -14h91l14 14v72l-14 13h-88l-19 -20h-105v215h324v-77h-217v-75l27 27h144l55 -55v-129l-58 -59h-218z" />
    <glyph glyph-name="six.denominator" horiz-adv-x="409" 
d="M94 0l-59 59v250l60 59h221l58 -58v-50h-105v21l-15 15h-92l-19 -19v-76l28 28h153l52 -51v-119l-59 -59h-223zM159 73h94l16 16v62l-15 16h-94l-17 -18v-60z" />
    <glyph glyph-name="seven.denominator" horiz-adv-x="358" 
d="M113 0v133l102 148h-203v87h334v-66l-126 -181v-121h-107z" />
    <glyph glyph-name="eight.denominator" horiz-adv-x="412" 
d="M91 0l-58 58v86l43 44l-42 43v79l58 58h228l59 -58v-79l-43 -43l43 -44v-86l-58 -58h-230zM155 71h102l16 15v55l-13 13h-108l-13 -13v-55zM153 220h106l13 13v50l-15 15h-102l-15 -15v-50z" />
    <glyph glyph-name="nine.denominator" horiz-adv-x="408" 
d="M92 0l-57 58v54h105v-24l15 -15h92l19 19v77l-27 -28h-155l-51 52v117l58 58h224l58 -58v-251l-59 -59h-222zM155 204h93l18 18v57l-17 16h-93l-17 -16v-59z" />
    <glyph glyph-name="Eth" unicode="&#xd0;" horiz-adv-x="677" 
d="M25 283v122h55v285h440l102 -102v-486l-102 -102h-440v283h-55zM234 115h194l40 40v380l-40 40h-194v-170h101v-122h-101v-168z" />
    </font>
</defs>
</svg>
